<?xml version="1.0" encoding="UTF-8"?>
<svg width="178px" height="58px" viewBox="0 0 178 58" version="1.1" xmlns="http://www.w3.org/2000/svg" xmlns:xlink="http://www.w3.org/1999/xlink">
    <!-- Generator: Sketch 42 (36781) - http://www.bohemiancoding.com/sketch -->
    <title>Caddy Copy 19</title>
    <desc>Created with Sketch.</desc>
    <defs></defs>
    <g id="Page-1" stroke="none" stroke-width="1" fill="none" fill-rule="evenodd">
        <g id="Desktop-HD" transform="translate(-1455.000000, -2207.000000)" fill="#FFFFFF">
            <path d="M1476.96,2245.58 C1479.40001,2245.58 1481.49999,2245.17 1483.26,2244.35 C1485.02001,2243.53 1486.85999,2242.22001 1488.78,2240.42 L1493.34,2245.1 C1488.89998,2250.02002 1483.51003,2252.48 1477.17,2252.48 C1470.82997,2252.48 1465.57002,2250.44002 1461.39,2246.36 C1457.20998,2242.27998 1455.12,2237.12003 1455.12,2230.88 C1455.12,2224.63997 1457.24998,2219.44002 1461.51,2215.28 C1465.77002,2211.11998 1471.14997,2209.04 1477.65,2209.04 C1484.15003,2209.04 1489.57998,2211.43998 1493.94,2216.24 L1489.44,2221.16 C1487.43999,2219.23999 1485.55001,2217.9 1483.77,2217.14 C1481.98999,2216.38 1479.90001,2216 1477.5,2216 C1473.25998,2216 1469.70001,2217.36999 1466.82,2220.11 C1463.93999,2222.85001 1462.5,2226.34998 1462.5,2230.61 C1462.5,2234.87002 1463.92999,2238.42999 1466.79,2241.29 C1469.65001,2244.15001 1473.03998,2245.58 1476.96,2245.58 Z M1523.45143,2252 L1517.33143,2252 L1517.33143,2247.74 C1514.69142,2250.90002 1511.15145,2252.48 1506.71143,2252.48 C1503.39141,2252.48 1500.64144,2251.54001 1498.46143,2249.66 C1496.28142,2247.77999 1495.19143,2245.27002 1495.19143,2242.13 C1495.19143,2238.98998 1496.35142,2236.64001 1498.67143,2235.08 C1500.99144,2233.51999 1504.13141,2232.74 1508.09143,2232.74 L1516.79143,2232.74 L1516.79143,2231.54 C1516.79143,2227.29998 1514.43145,2225.18 1509.71143,2225.18 C1506.75141,2225.18 1503.67144,2226.25999 1500.47143,2228.42 L1497.47143,2224.22 C1501.35145,2221.13998 1505.7514,2219.6 1510.67143,2219.6 C1514.43145,2219.6 1517.50142,2220.54999 1519.88143,2222.45 C1522.26144,2224.35001 1523.45143,2227.33998 1523.45143,2231.42 L1523.45143,2252 Z M1516.73143,2240.12 L1516.73143,2237.42 L1509.17143,2237.42 C1504.3314,2237.42 1501.91143,2238.93998 1501.91143,2241.98 C1501.91143,2243.54001 1502.51142,2244.73 1503.71143,2245.55 C1504.91143,2246.37 1506.58142,2246.78 1508.72143,2246.78 C1510.86144,2246.78 1512.73142,2246.18001 1514.33143,2244.98 C1515.93144,2243.77999 1516.73143,2242.16001 1516.73143,2240.12 Z M1531.84286,2247.92 C1528.84284,2244.87998 1527.34286,2240.88002 1527.34286,2235.92 C1527.34286,2230.95998 1528.88284,2227.00001 1531.96286,2224.04 C1535.04287,2221.07999 1538.71284,2219.6 1542.97286,2219.6 C1547.23288,2219.6 1550.66284,2221.39998 1553.26286,2225 L1553.26286,2207.48 L1559.98286,2207.48 L1559.98286,2252 L1553.26286,2252 L1553.26286,2247.2 C1550.78284,2250.72002 1547.16288,2252.48 1542.40286,2252.48 C1538.36284,2252.48 1534.84287,2250.96002 1531.84286,2247.92 Z M1537.00286,2243.66 C1538.96287,2245.58001 1541.26284,2246.54 1543.90286,2246.54 C1546.54287,2246.54 1548.78285,2245.57001 1550.62286,2243.63 C1552.46287,2241.68999 1553.38286,2239.20002 1553.38286,2236.16 C1553.38286,2233.11998 1552.46287,2230.58001 1550.62286,2228.54 C1548.78285,2226.49999 1546.52287,2225.48 1543.84286,2225.48 C1541.16284,2225.48 1538.86287,2226.49999 1536.94286,2228.54 C1535.02285,2230.58001 1534.06286,2233.12998 1534.06286,2236.19 C1534.06286,2239.25002 1535.04285,2241.73999 1537.00286,2243.66 Z M1568.73429,2247.92 C1565.73427,2244.87998 1564.23429,2240.88002 1564.23429,2235.92 C1564.23429,2230.95998 1565.77427,2227.00001 1568.85429,2224.04 C1571.9343,2221.07999 1575.60426,2219.6 1579.86429,2219.6 C1584.12431,2219.6 1587.55427,2221.39998 1590.15429,2225 L1590.15429,2207.48 L1596.87429,2207.48 L1596.87429,2252 L1590.15429,2252 L1590.15429,2247.2 C1587.67427,2250.72002 1584.05431,2252.48 1579.29429,2252.48 C1575.25427,2252.48 1571.7343,2250.96002 1568.73429,2247.92 Z M1573.89429,2243.66 C1575.8543,2245.58001 1578.15427,2246.54 1580.79429,2246.54 C1583.4343,2246.54 1585.67428,2245.57001 1587.51429,2243.63 C1589.35429,2241.68999 1590.27429,2239.20002 1590.27429,2236.16 C1590.27429,2233.11998 1589.35429,2230.58001 1587.51429,2228.54 C1585.67428,2226.49999 1583.4143,2225.48 1580.73429,2225.48 C1578.05427,2225.48 1575.7543,2226.49999 1573.83429,2228.54 C1571.91428,2230.58001 1570.95429,2233.12998 1570.95429,2236.19 C1570.95429,2239.25002 1571.93428,2241.73999 1573.89429,2243.66 Z M1607.18571,2264.72 C1604.2657,2264.72 1601.62573,2263.66001 1599.26571,2261.54 L1602.32571,2256.08 C1603.72572,2257.40001 1605.17571,2258.06 1606.67571,2258.06 C1608.17572,2258.06 1609.39571,2257.52001 1610.33571,2256.44 C1611.27572,2255.35999 1611.74571,2254.18001 1611.74571,2252.9 C1611.74571,2252.34 1607.44576,2241.40011 1598.84571,2220.08 L1606.04571,2220.08 L1615.58571,2243.6 L1625.12571,2220.08 L1632.32571,2220.08 L1616.84571,2258 C1615.92571,2260.08001 1614.60572,2261.71999 1612.88571,2262.92 C1611.16571,2264.12001 1609.26572,2264.72 1607.18571,2264.72 Z" id="Caddy-Copy-19"></path>
        </g>
    </g>
</svg>