<?xml version="1.0" encoding="UTF-8"?>
<svg width="391px" height="34px" viewBox="0 0 391 34" version="1.1" xmlns="http://www.w3.org/2000/svg" xmlns:xlink="http://www.w3.org/1999/xlink">
    <!-- Generator: Sketch 42 (36781) - http://www.bohemiancoding.com/sketch -->
    <title>Group 26</title>
    <desc>Created with Sketch.</desc>
    <defs></defs>
    <g id="Page-1" stroke="none" stroke-width="1" fill="none" fill-rule="evenodd">
        <g id="Desktop-HD" transform="translate(-426.000000, -1893.000000)" fill="#000000">
            <g id="Group-26" transform="translate(426.000000, 1893.000000)">
                <path d="M185.56,22.255 C186.98334,22.255 188.208328,22.0158357 189.235,21.5375 C190.261672,21.0591643 191.334994,20.2950053 192.455,19.245 L195.115,21.975 C192.524987,24.8450143 189.380852,26.28 185.6825,26.28 C181.984148,26.28 178.915846,25.0900119 176.4775,22.71 C174.039154,20.3299881 172.82,17.3200182 172.82,13.68 C172.82,10.0399818 174.062488,7.0066788 176.5475,4.58 C179.032512,2.1533212 182.170814,0.94 185.9625,0.94 C189.754186,0.94 192.921654,2.339986 195.465,5.14 L192.84,8.01 C191.673328,6.8899944 190.570839,6.10833555 189.5325,5.665 C188.494161,5.22166445 187.275007,5 185.875,5 C183.401654,5 181.325008,5.79915867 179.645,7.3975 C177.964992,8.99584132 177.125,11.0374876 177.125,13.5225 C177.125,16.0075124 177.959158,18.0841583 179.6275,19.7525 C181.295842,21.4208417 183.273322,22.255 185.56,22.255 Z M212.68,26 L209.11,26 L209.11,23.515 C207.569992,25.3583426 205.505013,26.28 202.915,26.28 C200.978324,26.28 199.374173,25.7316721 198.1025,24.635 C196.830827,23.5383279 196.195,22.0741758 196.195,20.2425 C196.195,18.4108242 196.87166,17.0400046 198.225,16.13 C199.57834,15.2199954 201.409988,14.765 203.72,14.765 L208.795,14.765 L208.795,14.065 C208.795,11.5916543 207.418347,10.355 204.665,10.355 C202.938325,10.355 201.141676,10.9849937 199.275,12.245 L197.525,9.795 C199.788345,7.99832435 202.354986,7.1 205.225,7.1 C207.418344,7.1 209.20916,7.65416112 210.5975,8.7625 C211.98584,9.87083887 212.68,11.6149881 212.68,13.995 L212.68,26 Z M208.76,19.07 L208.76,17.495 L204.35,17.495 C201.526653,17.495 200.115,18.3816578 200.115,20.155 C200.115,21.0650045 200.464996,21.7591643 201.165,22.2375 C201.865004,22.7158357 202.83916,22.955 204.0875,22.955 C205.33584,22.955 206.426662,22.6050035 207.36,21.905 C208.293338,21.2049965 208.76,20.260006 208.76,19.07 Z M217.575,23.62 C215.824991,21.8466578 214.95,19.5133478 214.95,16.62 C214.95,13.7266522 215.848324,11.4166753 217.645,9.69 C219.441676,7.9633247 221.582488,7.1 224.0675,7.1 C226.552512,7.1 228.553326,8.1499895 230.07,10.25 L230.07,0.03 L233.99,0.03 L233.99,26 L230.07,26 L230.07,23.2 C228.623326,25.2533436 226.511681,26.28 223.735,26.28 C221.378322,26.28 219.325009,25.3933422 217.575,23.62 Z M220.585,21.135 C221.728339,22.2550056 223.069992,22.815 224.61,22.815 C226.150008,22.815 227.456661,22.2491723 228.53,21.1175 C229.603339,19.9858277 230.14,18.5333422 230.14,16.76 C230.14,14.9866578 229.603339,13.5050059 228.53,12.315 C227.456661,11.124994 226.138341,10.53 224.575,10.53 C223.011659,10.53 221.670006,11.124994 220.55,12.315 C219.429994,13.5050059 218.87,14.9924911 218.87,16.7775 C218.87,18.5625089 219.441661,20.0149944 220.585,21.135 Z M239.095,23.62 C237.344991,21.8466578 236.47,19.5133478 236.47,16.62 C236.47,13.7266522 237.368324,11.4166753 239.165,9.69 C240.961676,7.9633247 243.102488,7.1 245.5875,7.1 C248.072512,7.1 250.073326,8.1499895 251.59,10.25 L251.59,0.03 L255.51,0.03 L255.51,26 L251.59,26 L251.59,23.2 C250.143326,25.2533436 248.031681,26.28 245.255,26.28 C242.898322,26.28 240.845009,25.3933422 239.095,23.62 Z M242.105,21.135 C243.248339,22.2550056 244.589992,22.815 246.13,22.815 C247.670008,22.815 248.976661,22.2491723 250.05,21.1175 C251.123339,19.9858277 251.66,18.5333422 251.66,16.76 C251.66,14.9866578 251.123339,13.5050059 250.05,12.315 C248.976661,11.124994 247.658341,10.53 246.095,10.53 C244.531659,10.53 243.190006,11.124994 242.07,12.315 C240.949994,13.5050059 240.39,14.9924911 240.39,16.7775 C240.39,18.5625089 240.961661,20.0149944 242.105,21.135 Z M261.525,33.42 C259.821658,33.42 258.281674,32.8016728 256.905,31.565 L258.69,28.38 C259.506671,29.1500039 260.352496,29.535 261.2275,29.535 C262.102504,29.535 262.814164,29.2200031 263.3625,28.59 C263.910836,27.9599968 264.185,27.2716704 264.185,26.525 C264.185,26.1983317 261.676692,19.8167288 256.66,7.38 L260.86,7.38 L266.425,21.1 L271.99,7.38 L276.19,7.38 L267.16,29.5 C266.623331,30.7133394 265.853338,31.6699965 264.85,32.37 C263.846662,33.0700035 262.738339,33.42 261.525,33.42 Z" id="Caddy-Copy-7"></path>
                <path d="M11.4239962,10.859375 C11.4239962,12.5937587 10.8322053,13.9277297 9.64860559,14.8613281 C8.46500592,15.7949265 6.77166348,16.2617188 4.56852746,16.2617188 L2.55290246,16.2617188 L2.55290246,23 L0.56071496,23 L0.56071496,5.8671875 L5.00212121,5.8671875 C9.28339262,5.8671875 11.4239962,7.53123336 11.4239962,10.859375 Z M2.55290246,14.5507812 L4.34587121,14.5507812 C6.11150504,14.5507812 7.38883601,14.2656279 8.17790246,13.6953125 C8.96696891,13.1249971 9.36149621,12.2109438 9.36149621,10.953125 C9.36149621,9.82030684 8.99040617,8.97656527 8.24821496,8.421875 C7.50602375,7.86718473 6.34978531,7.58984375 4.77946496,7.58984375 L2.55290246,7.58984375 L2.55290246,14.5507812 Z M21.2439739,23 L20.8572551,21.171875 L20.7635051,21.171875 C20.1228769,21.9765665 19.4842114,22.5214829 18.8474895,22.8066406 C18.2107675,23.0917983 17.4158536,23.234375 16.4627239,23.234375 C15.18928,23.234375 14.1912431,22.9062533 13.4685832,22.25 C12.7459234,21.5937467 12.3845989,20.6601623 12.3845989,19.4492188 C12.3845989,16.8554558 14.4587969,15.4960944 18.6072551,15.3710938 L20.7869426,15.3007812 L20.7869426,14.5039062 C20.7869426,13.4960887 20.5701479,12.7519555 20.136552,12.2714844 C19.7029561,11.7910132 19.0096036,11.5507812 18.0564739,11.5507812 C16.986156,11.5507812 15.7752306,11.878903 14.4236614,12.5351562 L13.8260051,11.046875 C14.4588208,10.7031233 15.1521732,10.4335947 15.9060832,10.2382812 C16.6599932,10.0429678 17.4158451,9.9453125 18.1736614,9.9453125 C19.704919,9.9453125 20.8396733,10.2851529 21.5779582,10.9648438 C22.3162432,11.6445346 22.6853801,12.7343675 22.6853801,14.234375 L22.6853801,23 L21.2439739,23 Z M16.8494426,21.6289062 C18.0603862,21.6289062 19.0115485,21.2968783 19.7029582,20.6328125 C20.3943679,19.9687467 20.7400676,19.0390685 20.7400676,17.84375 L20.7400676,16.6835938 L18.7947551,16.765625 C17.2478724,16.8203128 16.1326491,17.0605447 15.449052,17.4863281 C14.7654548,17.9121115 14.4236614,18.5742143 14.4236614,19.4726562 C14.4236614,20.1757848 14.6365498,20.7109357 15.0623332,21.078125 C15.4881166,21.4453143 16.0838138,21.6289062 16.8494426,21.6289062 Z M31.181139,9.921875 C31.7514543,9.921875 32.263168,9.96874953 32.7162952,10.0625 L32.446764,11.8671875 C31.9155113,11.7499994 31.446766,11.6914062 31.040514,11.6914062 C30.0014463,11.6914062 29.1127833,12.113277 28.3744984,12.9570312 C27.6362134,13.8007855 27.2670765,14.8515562 27.2670765,16.109375 L27.2670765,23 L25.321764,23 L25.321764,10.15625 L26.9272327,10.15625 L27.149889,12.5351562 L27.243639,12.5351562 C27.7202039,11.6992146 28.2944169,11.0546898 28.9662952,10.6015625 C29.6381736,10.1484352 30.3764475,9.921875 31.181139,9.921875 Z M37.8956479,21.6289062 C38.2393996,21.6289062 38.5714275,21.6035159 38.8917416,21.5527344 C39.2120557,21.5019529 39.4659594,21.449219 39.6534604,21.3945312 L39.6534604,22.8828125 C39.4425218,22.9843755 39.1319781,23.068359 38.7218198,23.1347656 C38.3116615,23.2011722 37.9425245,23.234375 37.6143979,23.234375 C35.1300105,23.234375 33.8878354,21.9257943 33.8878354,19.3085938 L33.8878354,11.6679688 L32.0479916,11.6679688 L32.0479916,10.7304688 L33.8878354,9.921875 L34.7081479,7.1796875 L35.8331479,7.1796875 L35.8331479,10.15625 L39.5597104,10.15625 L39.5597104,11.6679688 L35.8331479,11.6679688 L35.8331479,19.2265625 C35.8331479,20.0000039 36.0167398,20.5937479 36.3839291,21.0078125 C36.7511185,21.4218771 37.2550197,21.6289062 37.8956479,21.6289062 Z M38.8093755,10.15625 L40.895313,10.15625 L43.707813,17.4804688 C44.3250036,19.1523521 44.7078123,20.3593713 44.8562505,21.1015625 L44.9500005,21.1015625 C45.0515635,20.703123 45.264452,20.0214892 45.5886724,19.0566406 C45.9128928,18.0917921 46.973429,15.1250248 48.770313,10.15625 L50.8562505,10.15625 L45.3367193,24.78125 C44.7898415,26.2265697 44.1511761,27.2519501 43.4207036,27.8574219 C42.6902312,28.4628937 41.7937558,28.765625 40.7312505,28.765625 C40.1374976,28.765625 39.5515659,28.6992194 38.973438,28.5664062 L38.973438,27.0078125 C39.4031277,27.101563 39.8835916,27.1484375 40.4148443,27.1484375 C41.7507885,27.1484375 42.7039039,26.398445 43.2742193,24.8984375 L43.989063,23.0703125 L38.8093755,10.15625 Z M58.3790183,23 L56.4337058,23 L56.4337058,10.15625 L58.3790183,10.15625 L58.3790183,23 Z M56.2696433,6.67578125 C56.2696433,6.23046652 56.3790172,5.90429791 56.5977683,5.69726562 C56.8165194,5.49023334 57.0899542,5.38671875 57.4180808,5.38671875 C57.7305824,5.38671875 58.0001109,5.49218645 58.2266746,5.703125 C58.4532382,5.91406355 58.5665183,6.23827906 58.5665183,6.67578125 C58.5665183,7.11328344 58.4532382,7.43945205 58.2266746,7.65429688 C58.0001109,7.8691417 57.7305824,7.9765625 57.4180808,7.9765625 C57.0899542,7.9765625 56.8165194,7.8691417 56.5977683,7.65429688 C56.3790172,7.43945205 56.2696433,7.11328344 56.2696433,6.67578125 Z M69.9216522,23 L69.9216522,14.6914062 C69.9216522,13.644526 69.6833733,12.8632838 69.2068084,12.3476562 C68.7302436,11.8320287 67.9841573,11.5742188 66.9685272,11.5742188 C65.6247705,11.5742188 64.6404053,11.9374964 64.0154022,12.6640625 C63.3903991,13.3906286 63.0779022,14.5898354 63.0779022,16.2617188 L63.0779022,23 L61.1325897,23 L61.1325897,10.15625 L62.7146209,10.15625 L63.0310272,11.9140625 L63.1247772,11.9140625 C63.5232167,11.2812468 64.0818049,10.7910174 64.8005584,10.4433594 C65.519312,10.0957014 66.3200853,9.921875 67.2029022,9.921875 C68.7497849,9.921875 69.9138358,10.2949181 70.6950897,11.0410156 C71.4763436,11.7871131 71.8669647,12.9804605 71.8669647,14.6210938 L71.8669647,23 L69.9216522,23 Z M83.5030137,21.6289062 C83.8467654,21.6289062 84.1787934,21.6035159 84.4991075,21.5527344 C84.8194216,21.5019529 85.0733253,21.449219 85.2608262,21.3945312 L85.2608262,22.8828125 C85.0498877,22.9843755 84.7393439,23.068359 84.3291856,23.1347656 C83.9190273,23.2011722 83.5498904,23.234375 83.2217637,23.234375 C80.7373763,23.234375 79.4952012,21.9257943 79.4952012,19.3085938 L79.4952012,11.6679688 L77.6553575,11.6679688 L77.6553575,10.7304688 L79.4952012,9.921875 L80.3155137,7.1796875 L81.4405137,7.1796875 L81.4405137,10.15625 L85.1670762,10.15625 L85.1670762,11.6679688 L81.4405137,11.6679688 L81.4405137,19.2265625 C81.4405137,20.0000039 81.6241056,20.5937479 81.991295,21.0078125 C82.3584843,21.4218771 82.8623855,21.6289062 83.5030137,21.6289062 Z M95.2448664,23 L95.2448664,14.6914062 C95.2448664,13.644526 95.0065875,12.8632838 94.5300226,12.3476562 C94.0534577,11.8320287 93.3073714,11.5742188 92.2917414,11.5742188 C90.9401721,11.5742188 89.9538539,11.9414026 89.332757,12.6757812 C88.7116601,13.4101599 88.4011164,14.6132729 88.4011164,16.2851562 L88.4011164,23 L86.4558039,23 L86.4558039,4.765625 L88.4011164,4.765625 L88.4011164,10.2851562 C88.4011164,10.9492221 88.3698667,11.4999978 88.3073664,11.9375 L88.4245539,11.9375 C88.8073683,11.3203094 89.3522847,10.8339862 90.0593195,10.4785156 C90.7663543,10.1230451 91.5729868,9.9453125 92.4792414,9.9453125 C94.0495617,9.9453125 95.2272843,10.3183556 96.0124445,11.0644531 C96.7976047,11.8105506 97.1901789,12.9960856 97.1901789,14.6210938 L97.1901789,23 L95.2448664,23 Z M105.240625,23.234375 C103.342178,23.234375 101.844146,22.6562558 100.746485,21.5 C99.6488229,20.3437442 99.1000003,18.7382915 99.1000003,16.6835938 C99.1000003,14.6132709 99.6097608,12.9687561 100.629297,11.75 C101.648833,10.5312439 103.01796,9.921875 104.736719,9.921875 C106.346102,9.921875 107.619527,10.4511666 108.557032,11.5097656 C109.494536,12.5683647 109.963282,13.9648351 109.963282,15.6992188 L109.963282,16.9296875 L101.115625,16.9296875 C101.154688,18.4375075 101.535544,19.5820273 102.258203,20.3632812 C102.980863,21.1445352 103.998431,21.5351562 105.310938,21.5351562 C106.693757,21.5351562 108.060931,21.2460966 109.4125,20.6679688 L109.4125,22.4023438 C108.724997,22.6992202 108.074613,22.9121087 107.461328,23.0410156 C106.848044,23.1699225 106.107817,23.234375 105.240625,23.234375 Z M104.713282,11.5507812 C103.682026,11.5507812 102.859769,11.8867154 102.246485,12.5585938 C101.6332,13.2304721 101.271876,14.1601503 101.1625,15.3476562 L107.877344,15.3476562 C107.877344,14.1210876 107.603909,13.1816439 107.057032,12.5292969 C106.510154,11.8769499 105.728912,11.5507812 104.713282,11.5507812 Z M122.560268,11.6679688 L119.290737,11.6679688 L119.290737,23 L117.345424,23 L117.345424,11.6679688 L115.048549,11.6679688 L115.048549,10.7890625 L117.345424,10.0859375 L117.345424,9.37109375 C117.345424,6.21482797 118.724317,4.63671875 121.482143,4.63671875 C122.161834,4.63671875 122.958701,4.77343613 123.872768,5.046875 L123.368862,6.60546875 C122.618858,6.36328004 121.978239,6.2421875 121.446987,6.2421875 C120.712608,6.2421875 120.169645,6.48632568 119.818081,6.97460938 C119.466516,7.46289307 119.290737,8.24608836 119.290737,9.32421875 L119.290737,10.15625 L122.560268,10.15625 L122.560268,11.6679688 Z M129.391964,9.921875 C129.96228,9.921875 130.473993,9.96874953 130.927121,10.0625 L130.657589,11.8671875 C130.126337,11.7499994 129.657591,11.6914062 129.251339,11.6914062 C128.212272,11.6914062 127.323609,12.113277 126.585324,12.9570312 C125.847039,13.8007855 125.477902,14.8515562 125.477902,16.109375 L125.477902,23 L123.532589,23 L123.532589,10.15625 L125.138058,10.15625 L125.360714,12.5351562 L125.454464,12.5351562 C125.931029,11.6992146 126.505242,11.0546898 127.177121,10.6015625 C127.848999,10.1484352 128.587273,9.921875 129.391964,9.921875 Z M142.563505,16.5664062 C142.563505,18.6601667 142.036166,20.294916 140.981473,21.4707031 C139.926781,22.6464903 138.469764,23.234375 136.61038,23.234375 C135.461936,23.234375 134.442415,22.9648464 133.551786,22.4257812 C132.661156,21.8867161 131.973663,21.1132863 131.489286,20.1054688 C131.004908,19.0976512 130.762723,17.9179755 130.762723,16.5664062 C130.762723,14.4726458 131.286156,12.8418027 132.333036,11.6738281 C133.379916,10.5058535 134.833027,9.921875 136.692411,9.921875 C138.489295,9.921875 139.917015,10.5195253 140.975614,11.7148438 C142.034213,12.9101622 142.563505,14.5273336 142.563505,16.5664062 Z M132.778348,16.5664062 C132.778348,18.2070395 133.10647,19.457027 133.762723,20.3164062 C134.418977,21.1757855 135.383811,21.6054688 136.657255,21.6054688 C137.930698,21.6054688 138.897486,21.1777387 139.557645,20.3222656 C140.217805,19.4667926 140.54788,18.214852 140.54788,16.5664062 C140.54788,14.9335856 140.217805,13.6933636 139.557645,12.8457031 C138.897486,11.9980426 137.922886,11.5742188 136.633817,11.5742188 C135.360373,11.5742188 134.399445,11.9921833 133.751005,12.828125 C133.102564,13.6640667 132.778348,14.910148 132.778348,16.5664062 Z M153.391295,23 L153.391295,14.6914062 C153.391295,13.644526 153.153016,12.8632838 152.676451,12.3476562 C152.199886,11.8320287 151.4538,11.5742188 150.43817,11.5742188 C149.094413,11.5742188 148.110048,11.9374964 147.485045,12.6640625 C146.860042,13.3906286 146.547545,14.5898354 146.547545,16.2617188 L146.547545,23 L144.602232,23 L144.602232,10.15625 L146.184263,10.15625 L146.50067,11.9140625 L146.59442,11.9140625 C146.992859,11.2812468 147.551447,10.7910174 148.270201,10.4433594 C148.988955,10.0957014 149.789728,9.921875 150.672545,9.921875 C152.219427,9.921875 153.383478,10.2949181 154.164732,11.0410156 C154.945986,11.7871131 155.336607,12.9804605 155.336607,14.6210938 L155.336607,23 L153.391295,23 Z M162.10971,21.6289062 C162.453462,21.6289062 162.78549,21.6035159 163.105804,21.5527344 C163.426118,21.5019529 163.680021,21.449219 163.867522,21.3945312 L163.867522,22.8828125 C163.656584,22.9843755 163.34604,23.068359 162.935882,23.1347656 C162.525723,23.2011722 162.156586,23.234375 161.82846,23.234375 C159.344072,23.234375 158.101897,21.9257943 158.101897,19.3085938 L158.101897,11.6679688 L156.262054,11.6679688 L156.262054,10.7304688 L158.101897,9.921875 L158.92221,7.1796875 L160.04721,7.1796875 L160.04721,10.15625 L163.773772,10.15625 L163.773772,11.6679688 L160.04721,11.6679688 L160.04721,19.2265625 C160.04721,20.0000039 160.230802,20.5937479 160.597991,21.0078125 C160.96518,21.4218771 161.469082,21.6289062 162.10971,21.6289062 Z" id="Party-in-the-front"></path>
                <path d="M287.007812,23 L285.0625,23 L285.0625,10.15625 L287.007812,10.15625 L287.007812,23 Z M284.898437,6.67578125 C284.898437,6.23046652 285.007811,5.90429791 285.226562,5.69726562 C285.445314,5.49023334 285.718748,5.38671875 286.046875,5.38671875 C286.359377,5.38671875 286.628905,5.49218645 286.855469,5.703125 C287.082032,5.91406355 287.195312,6.23827906 287.195312,6.67578125 C287.195312,7.11328344 287.082032,7.43945205 286.855469,7.65429688 C286.628905,7.8691417 286.359377,7.9765625 286.046875,7.9765625 C285.718748,7.9765625 285.445314,7.8691417 285.226562,7.65429688 C285.007811,7.43945205 284.898437,7.11328344 284.898437,6.67578125 Z M298.550446,23 L298.550446,14.6914062 C298.550446,13.644526 298.312168,12.8632838 297.835603,12.3476562 C297.359038,11.8320287 296.612951,11.5742188 295.597321,11.5742188 C294.253565,11.5742188 293.2692,11.9374964 292.644196,12.6640625 C292.019193,13.3906286 291.706696,14.5898354 291.706696,16.2617188 L291.706696,23 L289.761384,23 L289.761384,10.15625 L291.343415,10.15625 L291.659821,11.9140625 L291.753571,11.9140625 C292.152011,11.2812468 292.710599,10.7910174 293.429353,10.4433594 C294.148106,10.0957014 294.948879,9.921875 295.831696,9.921875 C297.378579,9.921875 298.54263,10.2949181 299.323884,11.0410156 C300.105138,11.7871131 300.495759,12.9804605 300.495759,14.6210938 L300.495759,23 L298.550446,23 Z M312.131808,21.6289062 C312.47556,21.6289062 312.807588,21.6035159 313.127902,21.5527344 C313.448216,21.5019529 313.702119,21.449219 313.88962,21.3945312 L313.88962,22.8828125 C313.678682,22.9843755 313.368138,23.068359 312.95798,23.1347656 C312.547821,23.2011722 312.178685,23.234375 311.850558,23.234375 C309.366171,23.234375 308.123995,21.9257943 308.123995,19.3085938 L308.123995,11.6679688 L306.284152,11.6679688 L306.284152,10.7304688 L308.123995,9.921875 L308.944308,7.1796875 L310.069308,7.1796875 L310.069308,10.15625 L313.79587,10.15625 L313.79587,11.6679688 L310.069308,11.6679688 L310.069308,19.2265625 C310.069308,20.0000039 310.2529,20.5937479 310.620089,21.0078125 C310.987279,21.4218771 311.49118,21.6289062 312.131808,21.6289062 Z M323.873661,23 L323.873661,14.6914062 C323.873661,13.644526 323.635382,12.8632838 323.158817,12.3476562 C322.682252,11.8320287 321.936166,11.5742188 320.920536,11.5742188 C319.568966,11.5742188 318.582648,11.9414026 317.961551,12.6757812 C317.340454,13.4101599 317.029911,14.6132729 317.029911,16.2851562 L317.029911,23 L315.084598,23 L315.084598,4.765625 L317.029911,4.765625 L317.029911,10.2851562 C317.029911,10.9492221 316.998661,11.4999978 316.936161,11.9375 L317.053348,11.9375 C317.436162,11.3203094 317.981079,10.8339862 318.688114,10.4785156 C319.395148,10.1230451 320.201781,9.9453125 321.108036,9.9453125 C322.678356,9.9453125 323.856079,10.3183556 324.641239,11.0644531 C325.426399,11.8105506 325.818973,12.9960856 325.818973,14.6210938 L325.818973,23 L323.873661,23 Z M333.869419,23.234375 C331.970972,23.234375 330.472941,22.6562558 329.375279,21.5 C328.277617,20.3437442 327.728794,18.7382915 327.728794,16.6835938 C327.728794,14.6132709 328.238555,12.9687561 329.258091,11.75 C330.277628,10.5312439 331.646755,9.921875 333.365513,9.921875 C334.974896,9.921875 336.248321,10.4511666 337.185826,11.5097656 C338.12333,12.5683647 338.592076,13.9648351 338.592076,15.6992188 L338.592076,16.9296875 L329.744419,16.9296875 C329.783482,18.4375075 330.164338,19.5820273 330.886998,20.3632812 C331.609657,21.1445352 332.627225,21.5351562 333.939732,21.5351562 C335.322551,21.5351562 336.689725,21.2460966 338.041294,20.6679688 L338.041294,22.4023438 C337.353791,22.6992202 336.703407,22.9121087 336.090123,23.0410156 C335.476838,23.1699225 334.736611,23.234375 333.869419,23.234375 Z M333.342076,11.5507812 C332.310821,11.5507812 331.488563,11.8867154 330.875279,12.5585938 C330.261995,13.2304721 329.90067,14.1601503 329.791294,15.3476562 L336.506138,15.3476562 C336.506138,14.1210876 336.232703,13.1816439 335.685826,12.5292969 C335.138948,11.8769499 334.357706,11.5507812 333.342076,11.5507812 Z M351.376562,9.9453125 C353.064071,9.9453125 354.374604,10.5214786 355.308203,11.6738281 C356.241801,12.8261776 356.708593,14.4570207 356.708593,16.5664062 C356.708593,18.6757918 356.237895,20.3144473 355.296484,21.4824219 C354.355073,22.6503965 353.048446,23.234375 351.376562,23.234375 C350.540621,23.234375 349.776956,23.0800797 349.085547,22.7714844 C348.394137,22.4628891 347.814065,21.9882845 347.345312,21.3476562 L347.204687,21.3476562 L346.794531,23 L345.4,23 L345.4,4.765625 L347.345312,4.765625 L347.345312,9.1953125 C347.345312,10.187505 347.314063,11.0781211 347.251562,11.8671875 L347.345312,11.8671875 C348.251567,10.5859311 349.595303,9.9453125 351.376562,9.9453125 Z M351.095312,11.5742188 C349.767181,11.5742188 348.810159,11.9550743 348.224218,12.7167969 C347.638278,13.4785194 347.345312,14.7617097 347.345312,16.5664062 C347.345312,18.3711028 347.64609,19.6621055 348.247656,20.4394531 C348.849221,21.2168008 349.814056,21.6054688 351.142187,21.6054688 C352.337506,21.6054688 353.228122,21.1699262 353.814062,20.2988281 C354.400003,19.42773 354.692968,18.1757894 354.692968,16.5429688 C354.692968,14.8710854 354.400003,13.6250041 353.814062,12.8046875 C353.228122,11.9843709 352.321881,11.5742188 351.095312,11.5742188 Z M366.63404,23 L366.247321,21.171875 L366.153571,21.171875 C365.512943,21.9765665 364.874277,22.5214829 364.237556,22.8066406 C363.600834,23.0917983 362.80592,23.234375 361.85279,23.234375 C360.579346,23.234375 359.581309,22.9062533 358.858649,22.25 C358.135989,21.5937467 357.774665,20.6601623 357.774665,19.4492188 C357.774665,16.8554558 359.848863,15.4960944 363.997321,15.3710938 L366.177009,15.3007812 L366.177009,14.5039062 C366.177009,13.4960887 365.960214,12.7519555 365.526618,12.2714844 C365.093022,11.7910132 364.39967,11.5507812 363.44654,11.5507812 C362.376222,11.5507812 361.165297,11.878903 359.813727,12.5351562 L359.216071,11.046875 C359.848887,10.7031233 360.542239,10.4335947 361.296149,10.2382812 C362.050059,10.0429678 362.805911,9.9453125 363.563727,9.9453125 C365.094985,9.9453125 366.229739,10.2851529 366.968024,10.9648438 C367.706309,11.6445346 368.075446,12.7343675 368.075446,14.234375 L368.075446,23 L366.63404,23 Z M362.239509,21.6289062 C363.450452,21.6289062 364.401615,21.2968783 365.093024,20.6328125 C365.784434,19.9687467 366.130134,19.0390685 366.130134,17.84375 L366.130134,16.6835938 L364.184821,16.765625 C362.637938,16.8203128 361.522715,17.0605447 360.839118,17.4863281 C360.155521,17.9121115 359.813727,18.5742143 359.813727,19.4726562 C359.813727,20.1757848 360.026616,20.7109357 360.452399,21.078125 C360.878183,21.4453143 361.47388,21.6289062 362.239509,21.6289062 Z M375.844643,23.234375 C373.985258,23.234375 372.545819,22.6621151 371.526283,21.5175781 C370.506747,20.3730412 369.996986,18.7539167 369.996986,16.6601562 C369.996986,14.511708 370.514559,12.8515684 371.549721,11.6796875 C372.584882,10.5078066 374.059477,9.921875 375.973549,9.921875 C376.590739,9.921875 377.207921,9.98828059 377.825111,10.1210938 C378.442302,10.2539069 378.926672,10.4101554 379.278236,10.5898438 L378.68058,12.2421875 C378.25089,12.0703116 377.782145,11.9277349 377.27433,11.8144531 C376.766515,11.7011713 376.317301,11.6445312 375.926674,11.6445312 C373.317286,11.6445312 372.012611,13.3085771 372.012611,16.6367188 C372.012611,18.2148516 372.330967,19.425777 372.967689,20.2695312 C373.604411,21.1132855 374.547761,21.5351562 375.797768,21.5351562 C376.868085,21.5351562 377.965731,21.3046898 379.090736,20.84375 L379.090736,22.5664062 C378.231357,23.011721 377.149337,23.234375 375.844643,23.234375 Z M382.688058,16.4257812 C383.023997,15.9492164 383.53571,15.3242226 384.223214,14.5507812 L388.371651,10.15625 L390.680245,10.15625 L385.47712,15.6289062 L391.043526,23 L388.688058,23 L384.152901,16.9296875 L382.688058,18.1953125 L382.688058,23 L380.766183,23 L380.766183,4.765625 L382.688058,4.765625 L382.688058,14.4335938 C382.688058,14.8632834 382.656808,15.5273393 382.594308,16.4257812 L382.688058,16.4257812 Z" id="in-the-back"></path>
            </g>
        </g>
    </g>
</svg>