<?xml version="1.0" encoding="UTF-8"?>
<svg width="229px" height="34px" viewBox="0 0 229 34" version="1.1" xmlns="http://www.w3.org/2000/svg" xmlns:xlink="http://www.w3.org/1999/xlink">
    <!-- Generator: Sketch 42 (36781) - http://www.bohemiancoding.com/sketch -->
    <title>Group 28</title>
    <desc>Created with Sketch.</desc>
    <defs></defs>
    <g id="Page-1" stroke="none" stroke-width="1" fill="none" fill-rule="evenodd">
        <g id="Desktop-HD" transform="translate(-458.000000, -2059.000000)" fill="#000000">
            <g id="Group-28" transform="translate(458.000000, 2059.000000)">
                <path d="M137.56,22.255 C138.98334,22.255 140.208328,22.0158357 141.235,21.5375 C142.261672,21.0591643 143.334994,20.2950053 144.455,19.245 L147.115,21.975 C144.524987,24.8450143 141.380852,26.28 137.6825,26.28 C133.984148,26.28 130.915846,25.0900119 128.4775,22.71 C126.039154,20.3299881 124.82,17.3200182 124.82,13.68 C124.82,10.0399818 126.062488,7.0066788 128.5475,4.58 C131.032512,2.1533212 134.170814,0.94 137.9625,0.94 C141.754186,0.94 144.921654,2.339986 147.465,5.14 L144.84,8.01 C143.673328,6.8899944 142.570839,6.10833555 141.5325,5.665 C140.494161,5.22166445 139.275007,5 137.875,5 C135.401654,5 133.325008,5.79915867 131.645,7.3975 C129.964992,8.99584133 129.125,11.0374876 129.125,13.5225 C129.125,16.0075124 129.959158,18.0841583 131.6275,19.7525 C133.295842,21.4208417 135.273322,22.255 137.56,22.255 Z M164.68,26 L161.11,26 L161.11,23.515 C159.569992,25.3583426 157.505013,26.28 154.915,26.28 C152.978324,26.28 151.374173,25.7316722 150.1025,24.635 C148.830827,23.5383278 148.195,22.0741758 148.195,20.2425 C148.195,18.4108242 148.87166,17.0400046 150.225,16.13 C151.57834,15.2199955 153.409988,14.765 155.72,14.765 L160.795,14.765 L160.795,14.065 C160.795,11.5916543 159.418347,10.355 156.665,10.355 C154.938325,10.355 153.141676,10.9849937 151.275,12.245 L149.525,9.795 C151.788345,7.99832435 154.354986,7.1 157.225,7.1 C159.418344,7.1 161.20916,7.65416112 162.5975,8.7625 C163.98584,9.87083888 164.68,11.6149881 164.68,13.995 L164.68,26 Z M160.76,19.07 L160.76,17.495 L156.35,17.495 C153.526653,17.495 152.115,18.3816578 152.115,20.155 C152.115,21.0650046 152.464996,21.7591643 153.165,22.2375 C153.865004,22.7158357 154.83916,22.955 156.0875,22.955 C157.33584,22.955 158.426662,22.6050035 159.36,21.905 C160.293338,21.2049965 160.76,20.260006 160.76,19.07 Z M169.575,23.62 C167.824991,21.8466578 166.95,19.5133478 166.95,16.62 C166.95,13.7266522 167.848324,11.4166753 169.645,9.69 C171.441676,7.9633247 173.582488,7.1 176.0675,7.1 C178.552512,7.1 180.553326,8.1499895 182.07,10.25 L182.07,0.03 L185.99,0.03 L185.99,26 L182.07,26 L182.07,23.2 C180.623326,25.2533436 178.511681,26.28 175.735,26.28 C173.378322,26.28 171.325009,25.3933422 169.575,23.62 Z M172.585,21.135 C173.728339,22.2550056 175.069992,22.815 176.61,22.815 C178.150008,22.815 179.456661,22.2491723 180.53,21.1175 C181.603339,19.9858277 182.14,18.5333422 182.14,16.76 C182.14,14.9866578 181.603339,13.5050059 180.53,12.315 C179.456661,11.1249941 178.138341,10.53 176.575,10.53 C175.011659,10.53 173.670006,11.1249941 172.55,12.315 C171.429994,13.5050059 170.87,14.9924911 170.87,16.7775 C170.87,18.5625089 171.441661,20.0149944 172.585,21.135 Z M191.095,23.62 C189.344991,21.8466578 188.47,19.5133478 188.47,16.62 C188.47,13.7266522 189.368324,11.4166753 191.165,9.69 C192.961676,7.9633247 195.102488,7.1 197.5875,7.1 C200.072512,7.1 202.073326,8.1499895 203.59,10.25 L203.59,0.03 L207.51,0.03 L207.51,26 L203.59,26 L203.59,23.2 C202.143326,25.2533436 200.031681,26.28 197.255,26.28 C194.898322,26.28 192.845009,25.3933422 191.095,23.62 Z M194.105,21.135 C195.248339,22.2550056 196.589992,22.815 198.13,22.815 C199.670008,22.815 200.976661,22.2491723 202.05,21.1175 C203.123339,19.9858277 203.66,18.5333422 203.66,16.76 C203.66,14.9866578 203.123339,13.5050059 202.05,12.315 C200.976661,11.1249941 199.658341,10.53 198.095,10.53 C196.531659,10.53 195.190006,11.1249941 194.07,12.315 C192.949994,13.5050059 192.39,14.9924911 192.39,16.7775 C192.39,18.5625089 192.961661,20.0149944 194.105,21.135 Z M213.525,33.42 C211.821658,33.42 210.281674,32.8016729 208.905,31.565 L210.69,28.38 C211.506671,29.1500038 212.352496,29.535 213.2275,29.535 C214.102504,29.535 214.814164,29.2200032 215.3625,28.59 C215.910836,27.9599969 216.185,27.2716704 216.185,26.525 C216.185,26.1983317 213.676692,19.8167288 208.66,7.38 L212.86,7.38 L218.425,21.1 L223.99,7.38 L228.19,7.38 L219.16,29.5 C218.623331,30.7133394 217.853338,31.6699965 216.85,32.37 C215.846662,33.0700035 214.738339,33.42 213.525,33.42 Z" id="Caddy-Copy-9"></path>
                <path d="M11.2924111,10.859375 C11.2924111,12.5937587 10.7006201,13.9277297 9.51702046,14.8613281 C8.3334208,15.7949265 6.64007835,16.2617188 4.43694234,16.2617188 L2.42131734,16.2617188 L2.42131734,23 L0.429129839,23 L0.429129839,5.8671875 L4.87053609,5.8671875 C9.1518075,5.8671875 11.2924111,7.53123336 11.2924111,10.859375 Z M2.42131734,14.5507812 L4.21428609,14.5507812 C5.97991992,14.5507812 7.25725089,14.2656279 8.04631734,13.6953125 C8.83538378,13.1249971 9.22991109,12.2109438 9.22991109,10.953125 C9.22991109,9.82030684 8.85882105,8.97656527 8.11662984,8.421875 C7.37443863,7.86718473 6.21820019,7.58984375 4.64787984,7.58984375 L2.42131734,7.58984375 L2.42131734,14.5507812 Z M24.2998887,16.5664062 C24.2998887,18.6601667 23.7725503,20.294916 22.7178575,21.4707031 C21.6631647,22.6464903 20.206148,23.234375 18.3467637,23.234375 C17.1983205,23.234375 16.1787994,22.9648464 15.28817,22.4257812 C14.3975405,21.8867161 13.7100474,21.1132863 13.22567,20.1054688 C12.7412926,19.0976512 12.4991075,17.9179755 12.4991075,16.5664062 C12.4991075,14.4726458 13.0225397,12.8418027 14.06942,11.6738281 C15.1163002,10.5058535 16.5694107,9.921875 18.428795,9.921875 C20.225679,9.921875 21.6533991,10.5195253 22.7119981,11.7148438 C23.7705971,12.9101622 24.2998887,14.5273336 24.2998887,16.5664062 Z M14.5147325,16.5664062 C14.5147325,18.2070395 14.8428542,19.457027 15.4991075,20.3164062 C16.1553608,21.1757855 17.1201949,21.6054688 18.3936387,21.6054688 C19.6670826,21.6054688 20.6338698,21.1777387 21.2940294,20.3222656 C21.9541889,19.4667926 22.2842637,18.214852 22.2842637,16.5664062 C22.2842637,14.9335856 21.9541889,13.6933636 21.2940294,12.8457031 C20.6338698,11.9980426 19.6592702,11.5742188 18.3702012,11.5742188 C17.0967574,11.5742188 16.1358295,11.9921833 15.4873887,12.828125 C14.838948,13.6640667 14.5147325,14.910148 14.5147325,16.5664062 Z M36.3464289,23 L33.9909601,15.4648438 C33.8425219,15.0039039 33.5651809,13.9570394 33.1589289,12.3242188 L33.0651789,12.3242188 C32.7526773,13.6914131 32.4792425,14.74609 32.2448664,15.4882812 L29.8190851,23 L27.5690851,23 L24.0651789,10.15625 L26.1042414,10.15625 C26.9323705,13.3828286 27.5632236,15.8398353 27.9968195,17.5273438 C28.4304154,19.2148522 28.6784598,20.3515596 28.7409601,20.9375 L28.8347101,20.9375 C28.9206481,20.4921853 29.0593185,19.9160192 29.2507257,19.2089844 C29.442133,18.5019496 29.6081469,17.9414083 29.7487726,17.5273438 L32.1042414,10.15625 L34.2136164,10.15625 L36.5104914,17.5273438 C36.9479936,18.8711005 37.2448656,19.9999954 37.4011164,20.9140625 L37.4948664,20.9140625 C37.5261165,20.6328111 37.6101001,20.1992217 37.7468195,19.6132812 C37.8835389,19.0273408 38.6979839,15.8750286 40.1901789,10.15625 L42.2058039,10.15625 L38.6550226,23 L36.3464289,23 Z M48.580469,23.234375 C46.682022,23.234375 45.1839901,22.6562558 44.0863284,21.5 C42.9886666,20.3437442 42.439844,18.7382915 42.439844,16.6835938 C42.439844,14.6132709 42.9496045,12.9687561 43.9691409,11.75 C44.9886772,10.5312439 46.3578042,9.921875 48.0765628,9.921875 C49.6859458,9.921875 50.9593706,10.4511666 51.8968753,11.5097656 C52.8343799,12.5683647 53.3031253,13.9648351 53.3031253,15.6992188 L53.3031253,16.9296875 L44.455469,16.9296875 C44.4945317,18.4375075 44.8753873,19.5820273 45.5980471,20.3632812 C46.320707,21.1445352 47.3382749,21.5351562 48.6507815,21.5351562 C50.0336009,21.5351562 51.4007748,21.2460966 52.752344,20.6679688 L52.752344,22.4023438 C52.0648406,22.6992202 51.4144565,22.9121087 50.8011721,23.0410156 C50.1878878,23.1699225 49.4476608,23.234375 48.580469,23.234375 Z M48.0531253,11.5507812 C47.0218701,11.5507812 46.1996127,11.8867154 45.5863284,12.5585938 C44.9730441,13.2304721 44.6117196,14.1601503 44.502344,15.3476562 L51.2171878,15.3476562 C51.2171878,14.1210876 50.943753,13.1816439 50.3968753,12.5292969 C49.8499975,11.8769499 49.0687553,11.5507812 48.0531253,11.5507812 Z M61.1074779,9.921875 C61.6777933,9.921875 62.1895069,9.96874953 62.6426342,10.0625 L62.3731029,11.8671875 C61.8418502,11.7499994 61.3731049,11.6914062 60.9668529,11.6914062 C59.9277852,11.6914062 59.0391222,12.113277 58.3008373,12.9570312 C57.5625523,13.8007855 57.1934154,14.8515562 57.1934154,16.109375 L57.1934154,23 L55.2481029,23 L55.2481029,10.15625 L56.8535717,10.15625 L57.0762279,12.5351562 L57.1699779,12.5351562 C57.6465428,11.6992146 58.2207558,11.0546898 58.8926342,10.6015625 C59.5645125,10.1484352 60.3027864,9.921875 61.1074779,9.921875 Z M68.6188618,23.234375 C66.7204148,23.234375 65.2223829,22.6562558 64.1247212,21.5 C63.0270594,20.3437442 62.4782368,18.7382915 62.4782368,16.6835938 C62.4782368,14.6132709 62.9879973,12.9687561 64.0075337,11.75 C65.02707,10.5312439 66.396197,9.921875 68.1149555,9.921875 C69.7243386,9.921875 70.9977634,10.4511666 71.935268,11.5097656 C72.8727727,12.5683647 73.341518,13.9648351 73.341518,15.6992188 L73.341518,16.9296875 L64.4938618,16.9296875 C64.5329245,18.4375075 64.9137801,19.5820273 65.6364399,20.3632812 C66.3590998,21.1445352 67.3766677,21.5351562 68.6891743,21.5351562 C70.0719937,21.5351562 71.4391675,21.2460966 72.7907368,20.6679688 L72.7907368,22.4023438 C72.1032334,22.6992202 71.4528492,22.9121087 70.8395649,23.0410156 C70.2262806,23.1699225 69.4860536,23.234375 68.6188618,23.234375 Z M68.091518,11.5507812 C67.0602629,11.5507812 66.2380055,11.8867154 65.6247212,12.5585938 C65.0114369,13.2304721 64.6501123,14.1601503 64.5407368,15.3476562 L71.2555805,15.3476562 C71.2555805,14.1210876 70.9821458,13.1816439 70.435268,12.5292969 C69.8883903,11.8769499 69.1071481,11.5507812 68.091518,11.5507812 Z M84.0286832,21.2773438 L83.9232144,21.2773438 C83.0247724,22.5820378 81.6810359,23.234375 79.8919644,23.234375 C78.2122685,23.234375 76.905641,22.660162 75.9720426,21.5117188 C75.0384441,20.3632755 74.5716519,18.7304793 74.5716519,16.6132812 C74.5716519,14.4960832 75.0403972,12.8515684 75.9779019,11.6796875 C76.9154066,10.5078066 78.2200811,9.921875 79.8919644,9.921875 C81.6341606,9.921875 82.9700848,10.5546812 83.8997769,11.8203125 L84.0521207,11.8203125 L83.9700894,10.8945312 L83.9232144,9.9921875 L83.9232144,4.765625 L85.8685269,4.765625 L85.8685269,23 L84.2864957,23 L84.0286832,21.2773438 Z M80.1380582,21.6054688 C81.4661898,21.6054688 82.4290708,21.2441442 83.0267301,20.5214844 C83.6243893,19.7988245 83.9232144,18.6328205 83.9232144,17.0234375 L83.9232144,16.6132812 C83.9232144,14.7929596 83.6204831,13.4941445 83.0150113,12.7167969 C82.4095395,11.9394492 81.4427523,11.5507812 80.1146207,11.5507812 C78.97399,11.5507812 78.1009518,11.9941362 77.4954801,12.8808594 C76.8900083,13.7675826 76.5872769,15.0195232 76.5872769,16.6367188 C76.5872769,18.277352 76.8880552,19.5156208 77.4896207,20.3515625 C78.0911862,21.1875042 78.9739899,21.6054688 80.1380582,21.6054688 Z M99.4616072,9.9453125 C101.149116,9.9453125 102.459649,10.5214786 103.393248,11.6738281 C104.326846,12.8261776 104.793638,14.4570207 104.793638,16.5664062 C104.793638,18.6757918 104.32294,20.3144473 103.381529,21.4824219 C102.440118,22.6503965 101.133491,23.234375 99.4616072,23.234375 C98.6256655,23.234375 97.8620013,23.0800797 97.1705916,22.7714844 C96.4791819,22.4628891 95.8991096,21.9882845 95.4303572,21.3476562 L95.2897322,21.3476562 L94.879576,23 L93.4850447,23 L93.4850447,4.765625 L95.4303572,4.765625 L95.4303572,9.1953125 C95.4303572,10.187505 95.3991075,11.0781211 95.3366072,11.8671875 L95.4303572,11.8671875 C96.3366117,10.5859311 97.6803483,9.9453125 99.4616072,9.9453125 Z M99.1803572,11.5742188 C97.8522256,11.5742188 96.8952039,11.9550743 96.3092635,12.7167969 C95.723323,13.4785194 95.4303572,14.7617097 95.4303572,16.5664062 C95.4303572,18.3711028 95.7311355,19.6621055 96.332701,20.4394531 C96.9342665,21.2168008 97.8991006,21.6054688 99.2272322,21.6054688 C100.422551,21.6054688 101.313167,21.1699262 101.899107,20.2988281 C102.485048,19.42773 102.778013,18.1757894 102.778013,16.5429688 C102.778013,14.8710854 102.485048,13.6250041 101.899107,12.8046875 C101.313167,11.9843709 100.406926,11.5742188 99.1803572,11.5742188 Z M104.301116,10.15625 L106.387054,10.15625 L109.199554,17.4804688 C109.816744,19.1523521 110.199553,20.3593713 110.347991,21.1015625 L110.441741,21.1015625 C110.543304,20.703123 110.756193,20.0214892 111.080413,19.0566406 C111.404633,18.0917921 112.46517,15.1250248 114.262054,10.15625 L116.347991,10.15625 L110.82846,24.78125 C110.281582,26.2265697 109.642917,27.2519501 108.912444,27.8574219 C108.181972,28.4628937 107.285496,28.765625 106.222991,28.765625 C105.629238,28.765625 105.043306,28.6992194 104.465179,28.5664062 L104.465179,27.0078125 C104.894868,27.101563 105.375332,27.1484375 105.906585,27.1484375 C107.242529,27.1484375 108.195645,26.398445 108.76596,24.8984375 L109.480804,23.0703125 L104.301116,10.15625 Z" id="Powered-by"></path>
            </g>
        </g>
    </g>
</svg>