<?xml version="1.0" encoding="UTF-8"?>
<svg width="229px" height="34px" viewBox="0 0 229 34" version="1.1" xmlns="http://www.w3.org/2000/svg" xmlns:xlink="http://www.w3.org/1999/xlink">
    <!-- Generator: Sketch 42 (36781) - http://www.bohemiancoding.com/sketch -->
    <title>Group 23</title>
    <desc>Created with Sketch.</desc>
    <defs></defs>
    <g id="Page-1" stroke="none" stroke-width="1" fill="none" fill-rule="evenodd">
        <g id="Desktop-HD" transform="translate(-493.000000, -1569.000000)" fill="#000000">
            <g id="Group-23" transform="translate(493.000000, 1569.000000)">
                <path d="M137.56,22.255 C138.98334,22.255 140.208328,22.0158357 141.235,21.5375 C142.261672,21.0591643 143.334994,20.2950053 144.455,19.245 L147.115,21.975 C144.524987,24.8450143 141.380852,26.28 137.6825,26.28 C133.984148,26.28 130.915846,25.0900119 128.4775,22.71 C126.039154,20.3299881 124.82,17.3200182 124.82,13.68 C124.82,10.0399818 126.062488,7.0066788 128.5475,4.58 C131.032512,2.1533212 134.170814,0.94 137.9625,0.94 C141.754186,0.94 144.921654,2.339986 147.465,5.14 L144.84,8.01 C143.673328,6.8899944 142.570839,6.10833555 141.5325,5.665 C140.494161,5.22166445 139.275007,5 137.875,5 C135.401654,5 133.325008,5.79915867 131.645,7.3975 C129.964992,8.99584132 129.125,11.0374876 129.125,13.5225 C129.125,16.0075124 129.959158,18.0841583 131.6275,19.7525 C133.295842,21.4208417 135.273322,22.255 137.56,22.255 Z M164.68,26 L161.11,26 L161.11,23.515 C159.569992,25.3583426 157.505013,26.28 154.915,26.28 C152.978324,26.28 151.374173,25.7316721 150.1025,24.635 C148.830827,23.5383279 148.195,22.0741758 148.195,20.2425 C148.195,18.4108242 148.87166,17.0400046 150.225,16.13 C151.57834,15.2199954 153.409988,14.765 155.72,14.765 L160.795,14.765 L160.795,14.065 C160.795,11.5916543 159.418347,10.355 156.665,10.355 C154.938325,10.355 153.141676,10.9849937 151.275,12.245 L149.525,9.795 C151.788345,7.99832435 154.354986,7.1 157.225,7.1 C159.418344,7.1 161.20916,7.65416112 162.5975,8.7625 C163.98584,9.87083887 164.68,11.6149881 164.68,13.995 L164.68,26 Z M160.76,19.07 L160.76,17.495 L156.35,17.495 C153.526653,17.495 152.115,18.3816578 152.115,20.155 C152.115,21.0650045 152.464996,21.7591643 153.165,22.2375 C153.865004,22.7158357 154.83916,22.955 156.0875,22.955 C157.33584,22.955 158.426662,22.6050035 159.36,21.905 C160.293338,21.2049965 160.76,20.260006 160.76,19.07 Z M169.575,23.62 C167.824991,21.8466578 166.95,19.5133478 166.95,16.62 C166.95,13.7266522 167.848324,11.4166753 169.645,9.69 C171.441676,7.9633247 173.582488,7.1 176.0675,7.1 C178.552512,7.1 180.553326,8.1499895 182.07,10.25 L182.07,0.03 L185.99,0.03 L185.99,26 L182.07,26 L182.07,23.2 C180.623326,25.2533436 178.511681,26.28 175.735,26.28 C173.378322,26.28 171.325009,25.3933422 169.575,23.62 Z M172.585,21.135 C173.728339,22.2550056 175.069992,22.815 176.61,22.815 C178.150008,22.815 179.456661,22.2491723 180.53,21.1175 C181.603339,19.9858277 182.14,18.5333422 182.14,16.76 C182.14,14.9866578 181.603339,13.5050059 180.53,12.315 C179.456661,11.124994 178.138341,10.53 176.575,10.53 C175.011659,10.53 173.670006,11.124994 172.55,12.315 C171.429994,13.5050059 170.87,14.9924911 170.87,16.7775 C170.87,18.5625089 171.441661,20.0149944 172.585,21.135 Z M191.095,23.62 C189.344991,21.8466578 188.47,19.5133478 188.47,16.62 C188.47,13.7266522 189.368324,11.4166753 191.165,9.69 C192.961676,7.9633247 195.102488,7.1 197.5875,7.1 C200.072512,7.1 202.073326,8.1499895 203.59,10.25 L203.59,0.03 L207.51,0.03 L207.51,26 L203.59,26 L203.59,23.2 C202.143326,25.2533436 200.031681,26.28 197.255,26.28 C194.898322,26.28 192.845009,25.3933422 191.095,23.62 Z M194.105,21.135 C195.248339,22.2550056 196.589992,22.815 198.13,22.815 C199.670008,22.815 200.976661,22.2491723 202.05,21.1175 C203.123339,19.9858277 203.66,18.5333422 203.66,16.76 C203.66,14.9866578 203.123339,13.5050059 202.05,12.315 C200.976661,11.124994 199.658341,10.53 198.095,10.53 C196.531659,10.53 195.190006,11.124994 194.07,12.315 C192.949994,13.5050059 192.39,14.9924911 192.39,16.7775 C192.39,18.5625089 192.961661,20.0149944 194.105,21.135 Z M213.525,33.42 C211.821658,33.42 210.281674,32.8016728 208.905,31.565 L210.69,28.38 C211.506671,29.1500039 212.352496,29.535 213.2275,29.535 C214.102504,29.535 214.814164,29.2200031 215.3625,28.59 C215.910836,27.9599968 216.185,27.2716704 216.185,26.525 C216.185,26.1983317 213.676692,19.8167288 208.66,7.38 L212.86,7.38 L218.425,21.1 L223.99,7.38 L228.19,7.38 L219.16,29.5 C218.623331,30.7133394 217.853338,31.6699965 216.85,32.37 C215.846662,33.0700035 214.738339,33.42 213.525,33.42 Z" id="Caddy-Copy-21"></path>
                <path d="M11.3044647,18.4414062 C11.3044647,19.9492263 10.7575952,21.1249958 9.6638397,21.96875 C8.57008423,22.8125042 7.08572407,23.234375 5.2107147,23.234375 C3.17945454,23.234375 1.61697017,22.9726589 0.523214698,22.4492188 L0.523214698,20.5273438 C1.22634321,20.8242202 1.99196056,21.0585929 2.8200897,21.2304688 C3.64821884,21.4023446 4.46852314,21.4882812 5.2810272,21.4882812 C6.60915884,21.4882812 7.60914884,21.2363306 8.2810272,20.7324219 C8.95290556,20.2285131 9.2888397,19.5273482 9.2888397,18.6289062 C9.2888397,18.0351533 9.16970026,17.54883 8.93141782,17.1699219 C8.69313538,16.7910137 8.29470187,16.4414079 7.73610532,16.1210938 C7.17750878,15.8007796 6.3279079,15.437502 5.1872772,15.03125 C3.59351923,14.4609346 2.45485874,13.7851602 1.77126157,13.0039062 C1.0876644,12.2226523 0.745870948,11.2031313 0.745870948,9.9453125 C0.745870948,8.6249934 1.24195974,7.57422266 2.2341522,6.79296875 C3.22634466,6.01171484 4.53883153,5.62109375 6.1716522,5.62109375 C7.87478571,5.62109375 9.4411763,5.93359063 10.8708709,6.55859375 L10.2497772,8.29296875 C8.83570763,7.69921578 7.46072138,7.40234375 6.1247772,7.40234375 C5.07008442,7.40234375 4.24587392,7.62890398 3.65212095,8.08203125 C3.05836798,8.53515852 2.76149595,9.16405848 2.76149595,9.96875 C2.76149595,10.562503 2.87086985,11.0488262 3.08962095,11.4277344 C3.30837204,11.8066425 3.67750898,12.1542953 4.19704282,12.4707031 C4.71657667,12.787111 5.5114906,13.1367168 6.58180845,13.5195312 C8.37869243,14.1601595 9.61500819,14.8476526 10.2907928,15.5820312 C10.9665775,16.3164099 11.3044647,17.2695254 11.3044647,18.4414062 Z M18.5697548,23.234375 C16.6713078,23.234375 15.173276,22.6562558 14.0756142,21.5 C12.9779525,20.3437442 12.4291298,18.7382915 12.4291298,16.6835938 C12.4291298,14.6132709 12.9388904,12.9687561 13.9584267,11.75 C14.9779631,10.5312439 16.34709,9.921875 18.0658486,9.921875 C19.6752316,9.921875 20.9486564,10.4511666 21.8861611,11.5097656 C22.8236658,12.5683647 23.2924111,13.9648351 23.2924111,15.6992188 L23.2924111,16.9296875 L14.4447548,16.9296875 C14.4838175,18.4375075 14.8646731,19.5820273 15.587333,20.3632812 C16.3099928,21.1445352 17.3275608,21.5351562 18.6400673,21.5351562 C20.0228868,21.5351562 21.3900606,21.2460966 22.7416298,20.6679688 L22.7416298,22.4023438 C22.0541264,22.6992202 21.4037423,22.9121087 20.790458,23.0410156 C20.1771736,23.1699225 19.4369467,23.234375 18.5697548,23.234375 Z M18.0424111,11.5507812 C17.0111559,11.5507812 16.1888985,11.8867154 15.5756142,12.5585938 C14.9623299,13.2304721 14.6010054,14.1601503 14.4916298,15.3476562 L21.2064736,15.3476562 C21.2064736,14.1210876 20.9330388,13.1816439 20.3861611,12.5292969 C19.8392834,11.8769499 19.0580412,11.5507812 18.0424111,11.5507812 Z M31.0967637,9.921875 C31.6670791,9.921875 32.1787927,9.96874953 32.63192,10.0625 L32.3623887,11.8671875 C31.8311361,11.7499994 31.3623908,11.6914062 30.9561387,11.6914062 C29.917071,11.6914062 29.028408,12.113277 28.2901231,12.9570312 C27.5518382,13.8007855 27.1827012,14.8515562 27.1827012,16.109375 L27.1827012,23 L25.2373887,23 L25.2373887,10.15625 L26.8428575,10.15625 L27.0655137,12.5351562 L27.1592637,12.5351562 C27.6358286,11.6992146 28.2100416,11.0546898 28.88192,10.6015625 C29.5537983,10.1484352 30.2920722,9.921875 31.0967637,9.921875 Z M36.4753351,23 L31.6003351,10.15625 L33.6862726,10.15625 L36.4518976,17.7734375 C37.0769007,19.5546964 37.4440846,20.7109348 37.5534601,21.2421875 L37.6472101,21.2421875 C37.7331481,20.8281229 38.0046297,19.9707096 38.4616632,18.6699219 C38.9186968,17.3691341 39.9440772,14.5312719 41.5378351,10.15625 L43.6237726,10.15625 L38.7487726,23 L36.4753351,23 Z M49.7406253,23.234375 C47.8421783,23.234375 46.3441464,22.6562558 45.2464846,21.5 C44.1488229,20.3437442 43.6000003,18.7382915 43.6000003,16.6835938 C43.6000003,14.6132709 44.1097608,12.9687561 45.1292971,11.75 C46.1488335,10.5312439 47.5179604,9.921875 49.236719,9.921875 C50.8461021,9.921875 52.1195268,10.4511666 53.0570315,11.5097656 C53.9945362,12.5683647 54.4632815,13.9648351 54.4632815,15.6992188 L54.4632815,16.9296875 L45.6156253,16.9296875 C45.654688,18.4375075 46.0355435,19.5820273 46.7582034,20.3632812 C47.4808633,21.1445352 48.4984312,21.5351562 49.8109378,21.5351562 C51.1937572,21.5351562 52.560931,21.2460966 53.9125003,20.6679688 L53.9125003,22.4023438 C53.2249968,22.6992202 52.5746127,22.9121087 51.9613284,23.0410156 C51.3480441,23.1699225 50.6078171,23.234375 49.7406253,23.234375 Z M49.2132815,11.5507812 C48.1820264,11.5507812 47.359769,11.8867154 46.7464846,12.5585938 C46.1332003,13.2304721 45.7718758,14.1601503 45.6625003,15.3476562 L52.377344,15.3476562 C52.377344,14.1210876 52.1039092,13.1816439 51.5570315,12.5292969 C51.0101538,11.8769499 50.2289116,11.5507812 49.2132815,11.5507812 Z M65.1504467,21.2773438 L65.0449779,21.2773438 C64.1465359,22.5820378 62.8027993,23.234375 61.0137279,23.234375 C59.334032,23.234375 58.0274044,22.660162 57.093806,21.5117188 C56.1602076,20.3632755 55.6934154,18.7304793 55.6934154,16.6132812 C55.6934154,14.4960832 56.1621607,12.8515684 57.0996654,11.6796875 C58.0371701,10.5078066 59.3418445,9.921875 61.0137279,9.921875 C62.7559241,9.921875 64.0918483,10.5546812 65.0215404,11.8203125 L65.1738842,11.8203125 L65.0918529,10.8945312 L65.0449779,9.9921875 L65.0449779,4.765625 L66.9902904,4.765625 L66.9902904,23 L65.4082592,23 L65.1504467,21.2773438 Z M61.2598217,21.6054688 C62.5879533,21.6054688 63.5508343,21.2441442 64.1484935,20.5214844 C64.7461528,19.7988245 65.0449779,18.6328205 65.0449779,17.0234375 L65.0449779,16.6132812 C65.0449779,14.7929596 64.7422466,13.4941445 64.1367748,12.7167969 C63.531303,11.9394492 62.5645158,11.5507812 61.2363842,11.5507812 C60.0957535,11.5507812 59.2227153,11.9941362 58.6172435,12.8808594 C58.0117718,13.7675826 57.7090404,15.0195232 57.7090404,16.6367188 C57.7090404,18.277352 58.0098186,19.5156208 58.6113842,20.3515625 C59.2129497,21.1875042 60.0957533,21.6054688 61.2598217,21.6054688 Z M85.0950894,23 L82.7396207,15.4648438 C82.5911824,15.0039039 82.3138415,13.9570394 81.9075894,12.3242188 L81.8138394,12.3242188 C81.5013379,13.6914131 81.2279031,14.74609 80.9935269,15.4882812 L78.5677457,23 L76.3177457,23 L72.8138394,10.15625 L74.8529019,10.15625 C75.6810311,13.3828286 76.3118841,15.8398353 76.7454801,17.5273438 C77.179076,19.2148522 77.4271204,20.3515596 77.4896207,20.9375 L77.5833707,20.9375 C77.6693086,20.4921853 77.8079791,19.9160192 77.9993863,19.2089844 C78.1907935,18.5019496 78.3568075,17.9414083 78.4974332,17.5273438 L80.8529019,10.15625 L82.9622769,10.15625 L85.2591519,17.5273438 C85.6966541,18.8711005 85.9935262,19.9999954 86.1497769,20.9140625 L86.2435269,20.9140625 C86.2747771,20.6328111 86.3587606,20.1992217 86.4954801,19.6132812 C86.6321995,19.0273408 87.4466445,15.8750286 88.9388394,10.15625 L90.9544644,10.15625 L87.4036832,23 L85.0950894,23 Z M93.8486608,23 L91.9033483,23 L91.9033483,10.15625 L93.8486608,10.15625 L93.8486608,23 Z M91.7392858,6.67578125 C91.7392858,6.23046652 91.8486597,5.90429791 92.0674108,5.69726562 C92.2861619,5.49023334 92.5595967,5.38671875 92.8877233,5.38671875 C93.2002249,5.38671875 93.4697534,5.49218645 93.6963171,5.703125 C93.9228807,5.91406355 94.0361608,6.23827906 94.0361608,6.67578125 C94.0361608,7.11328344 93.9228807,7.43945205 93.6963171,7.65429688 C93.4697534,7.8691417 93.2002249,7.9765625 92.8877233,7.9765625 C92.5595967,7.9765625 92.2861619,7.8691417 92.0674108,7.65429688 C91.8486597,7.43945205 91.7392858,7.11328344 91.7392858,6.67578125 Z M100.75067,21.6289062 C101.094421,21.6289062 101.426449,21.6035159 101.746763,21.5527344 C102.067078,21.5019529 102.320981,21.449219 102.508482,21.3945312 L102.508482,22.8828125 C102.297544,22.9843755 101.987,23.068359 101.576842,23.1347656 C101.166683,23.2011722 100.797546,23.234375 100.46942,23.234375 C97.9850323,23.234375 96.7428572,21.9257943 96.7428572,19.3085938 L96.7428572,11.6679688 L94.9030135,11.6679688 L94.9030135,10.7304688 L96.7428572,9.921875 L97.5631697,7.1796875 L98.6881697,7.1796875 L98.6881697,10.15625 L102.414732,10.15625 L102.414732,11.6679688 L98.6881697,11.6679688 L98.6881697,19.2265625 C98.6881697,20.0000039 98.8717616,20.5937479 99.238951,21.0078125 C99.6061403,21.4218771 100.110042,21.6289062 100.75067,21.6289062 Z M112.492522,23 L112.492522,14.6914062 C112.492522,13.644526 112.254243,12.8632838 111.777679,12.3476562 C111.301114,11.8320287 110.555027,11.5742188 109.539397,11.5742188 C108.187828,11.5742188 107.20151,11.9414026 106.580413,12.6757812 C105.959316,13.4101599 105.648772,14.6132729 105.648772,16.2851562 L105.648772,23 L103.70346,23 L103.70346,4.765625 L105.648772,4.765625 L105.648772,10.2851562 C105.648772,10.9492221 105.617523,11.4999978 105.555022,11.9375 L105.67221,11.9375 C106.055024,11.3203094 106.599941,10.8339862 107.306975,10.4785156 C108.01401,10.1230451 108.820643,9.9453125 109.726897,9.9453125 C111.297218,9.9453125 112.47494,10.3183556 113.2601,11.0644531 C114.045261,11.8105506 114.437835,12.9960856 114.437835,14.6210938 L114.437835,23 L112.492522,23 Z" id="Served-with"></path>
            </g>
        </g>
    </g>
</svg>