<?xml version="1.0" encoding="UTF-8"?>
<svg width="271px" height="34px" viewBox="0 0 271 34" version="1.1" xmlns="http://www.w3.org/2000/svg" xmlns:xlink="http://www.w3.org/1999/xlink">
    <!-- Generator: Sketch 42 (36781) - http://www.bohemiancoding.com/sketch -->
    <title>Group 36</title>
    <desc>Created with Sketch.</desc>
    <defs></defs>
    <g id="Page-1" stroke="none" stroke-width="1" fill="none" fill-rule="evenodd">
        <g id="Desktop-HD" transform="translate(-1452.000000, -2138.000000)" fill="#FFFFFF">
            <g id="Group-36" transform="translate(1452.000000, 2138.000000)">
                <path d="M58.56,22.255 C59.9833405,22.255 61.2083282,22.0158357 62.235,21.5375 C63.2616718,21.0591643 64.3349944,20.2950053 65.455,19.245 L68.115,21.975 C65.524987,24.8450143 62.3808518,26.28 58.6825,26.28 C54.9841482,26.28 51.9158455,25.0900119 49.4775,22.71 C47.0391545,20.3299881 45.82,17.3200182 45.82,13.68 C45.82,10.0399818 47.0624876,7.0066788 49.5475,4.58 C52.0325124,2.1533212 55.1708144,0.94 58.9625,0.94 C62.7541856,0.94 65.921654,2.339986 68.465,5.14 L65.84,8.01 C64.6733275,6.8899944 63.5708385,6.10833555 62.5325,5.665 C61.4941615,5.22166445 60.275007,5 58.875,5 C56.4016543,5 54.3250084,5.79915867 52.645,7.3975 C50.9649916,8.99584133 50.125,11.0374876 50.125,13.5225 C50.125,16.0075124 50.9591583,18.0841583 52.6275,19.7525 C54.2958417,21.4208417 56.2733219,22.255 58.56,22.255 Z M85.68,26 L82.11,26 L82.11,23.515 C80.5699923,25.3583426 78.505013,26.28 75.915,26.28 C73.9783236,26.28 72.374173,25.7316722 71.1025,24.635 C69.830827,23.5383278 69.195,22.0741758 69.195,20.2425 C69.195,18.4108242 69.8716599,17.0400046 71.225,16.13 C72.5783401,15.2199955 74.4099884,14.765 76.72,14.765 L81.795,14.765 L81.795,14.065 C81.795,11.5916543 80.4183471,10.355 77.665,10.355 C75.9383247,10.355 74.141676,10.9849937 72.275,12.245 L70.525,9.795 C72.7883446,7.99832435 75.3549856,7.1 78.225,7.1 C80.4183443,7.1 82.2091597,7.65416112 83.5975,8.7625 C84.9858403,9.87083888 85.68,11.6149881 85.68,13.995 L85.68,26 Z M81.76,19.07 L81.76,17.495 L77.35,17.495 C74.5266526,17.495 73.115,18.3816578 73.115,20.155 C73.115,21.0650046 73.4649965,21.7591643 74.165,22.2375 C74.8650035,22.7158357 75.8391604,22.955 77.0875,22.955 C78.3358396,22.955 79.426662,22.6050035 80.36,21.905 C81.293338,21.2049965 81.76,20.260006 81.76,19.07 Z M90.575,23.62 C88.8249913,21.8466578 87.95,19.5133478 87.95,16.62 C87.95,13.7266522 88.8483243,11.4166753 90.645,9.69 C92.4416756,7.9633247 94.5824876,7.1 97.0675,7.1 C99.5525124,7.1 101.553326,8.1499895 103.07,10.25 L103.07,0.03 L106.99,0.03 L106.99,26 L103.07,26 L103.07,23.2 C101.623326,25.2533436 99.5116805,26.28 96.735,26.28 C94.3783216,26.28 92.3250088,25.3933422 90.575,23.62 Z M93.585,21.135 C94.728339,22.2550056 96.0699923,22.815 97.61,22.815 C99.1500077,22.815 100.456661,22.2491723 101.53,21.1175 C102.603339,19.9858277 103.14,18.5333422 103.14,16.76 C103.14,14.9866578 102.603339,13.5050059 101.53,12.315 C100.456661,11.1249941 99.1383412,10.53 97.575,10.53 C96.0116589,10.53 94.6700056,11.1249941 93.55,12.315 C92.4299944,13.5050059 91.87,14.9924911 91.87,16.7775 C91.87,18.5625089 92.4416609,20.0149944 93.585,21.135 Z M112.095,23.62 C110.344991,21.8466578 109.47,19.5133478 109.47,16.62 C109.47,13.7266522 110.368324,11.4166753 112.165,9.69 C113.961676,7.9633247 116.102488,7.1 118.5875,7.1 C121.072512,7.1 123.073326,8.1499895 124.59,10.25 L124.59,0.03 L128.51,0.03 L128.51,26 L124.59,26 L124.59,23.2 C123.143326,25.2533436 121.031681,26.28 118.255,26.28 C115.898322,26.28 113.845009,25.3933422 112.095,23.62 Z M115.105,21.135 C116.248339,22.2550056 117.589992,22.815 119.13,22.815 C120.670008,22.815 121.976661,22.2491723 123.05,21.1175 C124.123339,19.9858277 124.66,18.5333422 124.66,16.76 C124.66,14.9866578 124.123339,13.5050059 123.05,12.315 C121.976661,11.1249941 120.658341,10.53 119.095,10.53 C117.531659,10.53 116.190006,11.1249941 115.07,12.315 C113.949994,13.5050059 113.39,14.9924911 113.39,16.7775 C113.39,18.5625089 113.961661,20.0149944 115.105,21.135 Z M134.525,33.42 C132.821658,33.42 131.281674,32.8016729 129.905,31.565 L131.69,28.38 C132.506671,29.1500038 133.352496,29.535 134.2275,29.535 C135.102504,29.535 135.814164,29.2200032 136.3625,28.59 C136.910836,27.9599969 137.185,27.2716704 137.185,26.525 C137.185,26.1983317 134.676692,19.8167288 129.66,7.38 L133.86,7.38 L139.425,21.1 L144.99,7.38 L149.19,7.38 L140.16,29.5 C139.623331,30.7133394 138.853338,31.6699965 137.85,32.37 C136.846662,33.0700035 135.738339,33.42 134.525,33.42 Z" id="Caddy-Copy-11"></path>
                <path d="M8.27053583,24 L6.27834833,24 L6.27834833,8.63671875 L0.852567077,8.63671875 L0.852567077,6.8671875 L13.6963171,6.8671875 L13.6963171,8.63671875 L8.27053583,8.63671875 L8.27053583,24 Z M23.3991072,24 L23.3991072,15.6914062 C23.3991072,14.644526 23.1608284,13.8632838 22.6842635,13.3476562 C22.2076986,12.8320287 21.4616123,12.5742188 20.4459822,12.5742188 C19.094413,12.5742188 18.1080947,12.9414026 17.4869978,13.6757812 C16.865901,14.4101599 16.5553572,15.6132729 16.5553572,17.2851562 L16.5553572,24 L14.6100447,24 L14.6100447,5.765625 L16.5553572,5.765625 L16.5553572,11.2851562 C16.5553572,11.9492221 16.5241075,12.4999978 16.4616072,12.9375 L16.5787947,12.9375 C16.9616091,12.3203094 17.5065256,11.8339862 18.2135603,11.4785156 C18.9205951,11.1230451 19.7272277,10.9453125 20.6334822,10.9453125 C22.2038026,10.9453125 23.3815252,11.3183556 24.1666853,12.0644531 C24.9518455,12.8105506 25.3444197,13.9960856 25.3444197,15.6210938 L25.3444197,24 L23.3991072,24 Z M33.3948661,24.234375 C31.4964191,24.234375 29.9983872,23.6562558 28.9007255,22.5 C27.8030637,21.3437442 27.2542411,19.7382915 27.2542411,17.6835938 C27.2542411,15.6132709 27.7640016,13.9687561 28.783538,12.75 C29.8030743,11.5312439 31.1722013,10.921875 32.8909599,10.921875 C34.5003429,10.921875 35.7737677,11.4511666 36.7112724,12.5097656 C37.648777,13.5683647 38.1175224,14.9648351 38.1175224,16.6992188 L38.1175224,17.9296875 L29.2698661,17.9296875 C29.3089288,19.4375075 29.6897844,20.5820273 30.4124442,21.3632812 C31.1351041,22.1445352 32.152672,22.5351562 33.4651786,22.5351562 C34.847998,22.5351562 36.2151719,22.2460966 37.5667411,21.6679688 L37.5667411,23.4023438 C36.8792377,23.6992202 36.2288536,23.9121087 35.6155692,24.0410156 C35.0022849,24.1699225 34.2620579,24.234375 33.3948661,24.234375 Z M32.8675224,12.5507812 C31.8362672,12.5507812 31.0140098,12.8867154 30.4007255,13.5585938 C29.7874412,14.2304721 29.4261167,15.1601503 29.3167411,16.3476562 L36.0315849,16.3476562 C36.0315849,15.1210876 35.7581501,14.1816439 35.2112724,13.5292969 C34.6643946,12.8769499 33.8831524,12.5507812 32.8675224,12.5507812 Z" id="The-Copy"></path>
                <path d="M172.308594,24 L170.339844,24 L166.882812,12.5273438 C166.718749,12.0195287 166.535157,11.3789101 166.332031,10.6054688 C166.128905,9.83202738 166.023438,9.36718828 166.015625,9.2109375 C165.843749,10.2421927 165.570314,11.3710876 165.195312,12.5976562 L161.84375,24 L159.875,24 L155.316406,6.8671875 L157.425781,6.8671875 L160.132812,17.4492188 C160.507814,18.9336012 160.781249,20.2773377 160.953125,21.4804688 C161.164064,20.0507741 161.47656,18.6523506 161.890625,17.2851562 L164.960938,6.8671875 L167.070312,6.8671875 L170.292969,17.3789062 C170.667971,18.5898498 170.984374,19.9570236 171.242188,21.4804688 C171.390626,20.3710882 171.671873,19.0195392 172.085938,17.4257812 L174.78125,6.8671875 L176.890625,6.8671875 L172.308594,24 Z M182.855134,24.234375 C180.956687,24.234375 179.458655,23.6562558 178.360993,22.5 C177.263332,21.3437442 176.714509,19.7382915 176.714509,17.6835938 C176.714509,15.6132709 177.224269,13.9687561 178.243806,12.75 C179.263342,11.5312439 180.632469,10.921875 182.351228,10.921875 C183.960611,10.921875 185.234035,11.4511666 186.17154,12.5097656 C187.109045,13.5683647 187.57779,14.9648351 187.57779,16.6992188 L187.57779,17.9296875 L178.730134,17.9296875 C178.769197,19.4375075 179.150052,20.5820273 179.872712,21.3632812 C180.595372,22.1445352 181.61294,22.5351562 182.925446,22.5351562 C184.308266,22.5351562 185.67544,22.2460966 187.027009,21.6679688 L187.027009,23.4023438 C186.339505,23.6992202 185.689121,23.9121087 185.075837,24.0410156 C184.462553,24.1699225 183.722326,24.234375 182.855134,24.234375 Z M182.32779,12.5507812 C181.296535,12.5507812 180.474278,12.8867154 179.860993,13.5585938 C179.247709,14.2304721 178.886384,15.1601503 178.777009,16.3476562 L185.491853,16.3476562 C185.491853,15.1210876 185.218418,14.1816439 184.67154,13.5292969 C184.124662,12.8769499 183.34342,12.5507812 182.32779,12.5507812 Z M195.49933,10.9453125 C197.186839,10.9453125 198.497372,11.5214786 199.430971,12.6738281 C200.364569,13.8261776 200.831362,15.4570207 200.831362,17.5664062 C200.831362,19.6757918 200.360663,21.3144473 199.419252,22.4824219 C198.477841,23.6503965 197.171214,24.234375 195.49933,24.234375 C194.663389,24.234375 193.899724,24.0800797 193.208315,23.7714844 C192.516905,23.4628891 191.936833,22.9882845 191.46808,22.3476562 L191.327455,22.3476562 L190.917299,24 L189.522768,24 L189.522768,5.765625 L191.46808,5.765625 L191.46808,10.1953125 C191.46808,11.187505 191.436831,12.0781211 191.37433,12.8671875 L191.46808,12.8671875 C192.374335,11.5859311 193.718071,10.9453125 195.49933,10.9453125 Z M195.21808,12.5742188 C193.889949,12.5742188 192.932927,12.9550743 192.346987,13.7167969 C191.761046,14.4785194 191.46808,15.7617097 191.46808,17.5664062 C191.46808,19.3711028 191.768859,20.6621055 192.370424,21.4394531 C192.97199,22.2168008 193.936824,22.6054688 195.264955,22.6054688 C196.460274,22.6054688 197.35089,22.1699262 197.93683,21.2988281 C198.522771,20.42773 198.815737,19.1757894 198.815737,17.5429688 C198.815737,15.8710854 198.522771,14.6250041 197.93683,13.8046875 C197.35089,12.9843709 196.444649,12.5742188 195.21808,12.5742188 Z M217.682254,19.4414062 C217.682254,20.9492263 217.135385,22.1249958 216.041629,22.96875 C214.947874,23.8125042 213.463514,24.234375 211.588504,24.234375 C209.557244,24.234375 207.99476,23.9726589 206.901004,23.4492188 L206.901004,21.5273438 C207.604133,21.8242202 208.36975,22.0585929 209.197879,22.2304688 C210.026008,22.4023446 210.846313,22.4882812 211.658817,22.4882812 C212.986948,22.4882812 213.986938,22.2363306 214.658817,21.7324219 C215.330695,21.2285131 215.666629,20.5273482 215.666629,19.6289062 C215.666629,19.0351533 215.54749,18.54883 215.309207,18.1699219 C215.070925,17.7910137 214.672491,17.4414079 214.113895,17.1210938 C213.555298,16.8007796 212.705698,16.437502 211.565067,16.03125 C209.971309,15.4609346 208.832648,14.7851602 208.149051,14.0039062 C207.465454,13.2226523 207.123661,12.2031313 207.123661,10.9453125 C207.123661,9.6249934 207.619749,8.57422266 208.611942,7.79296875 C209.604134,7.01171484 210.916621,6.62109375 212.549442,6.62109375 C214.252575,6.62109375 215.818966,6.93359062 217.248661,7.55859375 L216.627567,9.29296875 C215.213497,8.69921578 213.838511,8.40234375 212.502567,8.40234375 C211.447874,8.40234375 210.623664,8.62890398 210.029911,9.08203125 C209.436158,9.53515852 209.139286,10.1640585 209.139286,10.96875 C209.139286,11.562503 209.248659,12.0488262 209.467411,12.4277344 C209.686162,12.8066425 210.055299,13.1542953 210.574832,13.4707031 C211.094366,13.787111 211.88928,14.1367168 212.959598,14.5195312 C214.756482,15.1601595 215.992798,15.8476526 216.668582,16.5820312 C217.344367,17.3164099 217.682254,18.2695254 217.682254,19.4414062 Z M224.947544,24.234375 C223.049097,24.234375 221.551066,23.6562558 220.453404,22.5 C219.355742,21.3437442 218.806919,19.7382915 218.806919,17.6835938 C218.806919,15.6132709 219.31668,13.9687561 220.336216,12.75 C221.355753,11.5312439 222.72488,10.921875 224.443638,10.921875 C226.053021,10.921875 227.326446,11.4511666 228.263951,12.5097656 C229.201455,13.5683647 229.670201,14.9648351 229.670201,16.6992188 L229.670201,17.9296875 L220.822544,17.9296875 C220.861607,19.4375075 221.242463,20.5820273 221.965123,21.3632812 C222.687782,22.1445352 223.70535,22.5351562 225.017857,22.5351562 C226.400676,22.5351562 227.76785,22.2460966 229.119419,21.6679688 L229.119419,23.4023438 C228.431916,23.6992202 227.781532,23.9121087 227.168248,24.0410156 C226.554963,24.1699225 225.814736,24.234375 224.947544,24.234375 Z M224.420201,12.5507812 C223.388946,12.5507812 222.566688,12.8867154 221.953404,13.5585938 C221.34012,14.2304721 220.978795,15.1601503 220.869419,16.3476562 L227.584263,16.3476562 C227.584263,15.1210876 227.310828,14.1816439 226.763951,13.5292969 C226.217073,12.8769499 225.435831,12.5507812 224.420201,12.5507812 Z M237.474553,10.921875 C238.044869,10.921875 238.556582,10.9687495 239.00971,11.0625 L238.740178,12.8671875 C238.208926,12.7499994 237.74018,12.6914062 237.333928,12.6914062 C236.294861,12.6914062 235.406198,13.113277 234.667913,13.9570312 C233.929628,14.8007855 233.560491,15.8515562 233.560491,17.109375 L233.560491,24 L231.615178,24 L231.615178,11.15625 L233.220647,11.15625 L233.443303,13.5351562 L233.537053,13.5351562 C234.013618,12.6992146 234.587831,12.0546898 235.25971,11.6015625 C235.931588,11.1484352 236.669862,10.921875 237.474553,10.921875 Z M242.853125,24 L237.978125,11.15625 L240.064062,11.15625 L242.829687,18.7734375 C243.45469,20.5546964 243.821874,21.7109348 243.93125,22.2421875 L244.025,22.2421875 C244.110938,21.8281229 244.382419,20.9707096 244.839453,19.6699219 C245.296486,18.3691341 246.321867,15.5312719 247.915625,11.15625 L250.001562,11.15625 L245.126562,24 L242.853125,24 Z M256.118415,24.234375 C254.219968,24.234375 252.721936,23.6562558 251.624274,22.5 C250.526613,21.3437442 249.97779,19.7382915 249.97779,17.6835938 C249.97779,15.6132709 250.48755,13.9687561 251.507087,12.75 C252.526623,11.5312439 253.89575,10.921875 255.614509,10.921875 C257.223892,10.921875 258.497316,11.4511666 259.434821,12.5097656 C260.372326,13.5683647 260.841071,14.9648351 260.841071,16.6992188 L260.841071,17.9296875 L251.993415,17.9296875 C252.032478,19.4375075 252.413333,20.5820273 253.135993,21.3632812 C253.858653,22.1445352 254.876221,22.5351562 256.188727,22.5351562 C257.571547,22.5351562 258.938721,22.2460966 260.29029,21.6679688 L260.29029,23.4023438 C259.602786,23.6992202 258.952402,23.9121087 258.339118,24.0410156 C257.725834,24.1699225 256.985607,24.234375 256.118415,24.234375 Z M255.591071,12.5507812 C254.559816,12.5507812 253.737559,12.8867154 253.124274,13.5585938 C252.51099,14.2304721 252.149665,15.1601503 252.04029,16.3476562 L258.755134,16.3476562 C258.755134,15.1210876 258.481699,14.1816439 257.934821,13.5292969 C257.387943,12.8769499 256.606701,12.5507812 255.591071,12.5507812 Z M268.645424,10.921875 C269.215739,10.921875 269.727453,10.9687495 270.18058,11.0625 L269.911049,12.8671875 C269.379796,12.7499994 268.911051,12.6914062 268.504799,12.6914062 C267.465731,12.6914062 266.577068,13.113277 265.838783,13.9570312 C265.100498,14.8007855 264.731361,15.8515562 264.731361,17.109375 L264.731361,24 L262.786049,24 L262.786049,11.15625 L264.391518,11.15625 L264.614174,13.5351562 L264.707924,13.5351562 C265.184489,12.6992146 265.758702,12.0546898 266.43058,11.6015625 C267.102458,11.1484352 267.840732,10.921875 268.645424,10.921875 Z" id="Web-Server-Copy"></path>
            </g>
        </g>
    </g>
</svg>