<?xml version="1.0" encoding="UTF-8"?>
<svg width="282px" height="34px" viewBox="0 0 282 34" version="1.1" xmlns="http://www.w3.org/2000/svg" xmlns:xlink="http://www.w3.org/1999/xlink">
    <!-- Generator: Sketch 42 (36781) - http://www.bohemiancoding.com/sketch -->
    <title>Group 25</title>
    <desc>Created with Sketch.</desc>
    <defs></defs>
    <g id="Page-1" stroke="none" stroke-width="1" fill="none" fill-rule="evenodd">
        <g id="Desktop-HD" transform="translate(-447.000000, -1769.000000)" fill="#000000">
            <g id="Group-25" transform="translate(447.000000, 1769.000000)">
                <path d="M95.56,22.255 C96.9833405,22.255 98.2083282,22.0158357 99.235,21.5375 C100.261672,21.0591643 101.334994,20.2950053 102.455,19.245 L105.115,21.975 C102.524987,24.8450143 99.3808518,26.28 95.6825,26.28 C91.9841482,26.28 88.9158455,25.0900119 86.4775,22.71 C84.0391545,20.3299881 82.82,17.3200182 82.82,13.68 C82.82,10.0399818 84.0624876,7.0066788 86.5475,4.58 C89.0325124,2.1533212 92.1708144,0.94 95.9625,0.94 C99.7541856,0.94 102.921654,2.339986 105.465,5.14 L102.84,8.01 C101.673328,6.8899944 100.570839,6.10833555 99.5325,5.665 C98.4941615,5.22166445 97.275007,5 95.875,5 C93.4016543,5 91.3250084,5.79915867 89.645,7.3975 C87.9649916,8.99584132 87.125,11.0374876 87.125,13.5225 C87.125,16.0075124 87.9591583,18.0841583 89.6275,19.7525 C91.2958417,21.4208417 93.2733219,22.255 95.56,22.255 Z M122.68,26 L119.11,26 L119.11,23.515 C117.569992,25.3583426 115.505013,26.28 112.915,26.28 C110.978324,26.28 109.374173,25.7316721 108.1025,24.635 C106.830827,23.5383279 106.195,22.0741758 106.195,20.2425 C106.195,18.4108242 106.87166,17.0400046 108.225,16.13 C109.57834,15.2199954 111.409988,14.765 113.72,14.765 L118.795,14.765 L118.795,14.065 C118.795,11.5916543 117.418347,10.355 114.665,10.355 C112.938325,10.355 111.141676,10.9849937 109.275,12.245 L107.525,9.795 C109.788345,7.99832435 112.354986,7.1 115.225,7.1 C117.418344,7.1 119.20916,7.65416112 120.5975,8.7625 C121.98584,9.87083887 122.68,11.6149881 122.68,13.995 L122.68,26 Z M118.76,19.07 L118.76,17.495 L114.35,17.495 C111.526653,17.495 110.115,18.3816578 110.115,20.155 C110.115,21.0650045 110.464996,21.7591643 111.165,22.2375 C111.865004,22.7158357 112.83916,22.955 114.0875,22.955 C115.33584,22.955 116.426662,22.6050035 117.36,21.905 C118.293338,21.2049965 118.76,20.260006 118.76,19.07 Z M127.575,23.62 C125.824991,21.8466578 124.95,19.5133478 124.95,16.62 C124.95,13.7266522 125.848324,11.4166753 127.645,9.69 C129.441676,7.9633247 131.582488,7.1 134.0675,7.1 C136.552512,7.1 138.553326,8.1499895 140.07,10.25 L140.07,0.03 L143.99,0.03 L143.99,26 L140.07,26 L140.07,23.2 C138.623326,25.2533436 136.511681,26.28 133.735,26.28 C131.378322,26.28 129.325009,25.3933422 127.575,23.62 Z M130.585,21.135 C131.728339,22.2550056 133.069992,22.815 134.61,22.815 C136.150008,22.815 137.456661,22.2491723 138.53,21.1175 C139.603339,19.9858277 140.14,18.5333422 140.14,16.76 C140.14,14.9866578 139.603339,13.5050059 138.53,12.315 C137.456661,11.124994 136.138341,10.53 134.575,10.53 C133.011659,10.53 131.670006,11.124994 130.55,12.315 C129.429994,13.5050059 128.87,14.9924911 128.87,16.7775 C128.87,18.5625089 129.441661,20.0149944 130.585,21.135 Z M149.095,23.62 C147.344991,21.8466578 146.47,19.5133478 146.47,16.62 C146.47,13.7266522 147.368324,11.4166753 149.165,9.69 C150.961676,7.9633247 153.102488,7.1 155.5875,7.1 C158.072512,7.1 160.073326,8.1499895 161.59,10.25 L161.59,0.03 L165.51,0.03 L165.51,26 L161.59,26 L161.59,23.2 C160.143326,25.2533436 158.031681,26.28 155.255,26.28 C152.898322,26.28 150.845009,25.3933422 149.095,23.62 Z M152.105,21.135 C153.248339,22.2550056 154.589992,22.815 156.13,22.815 C157.670008,22.815 158.976661,22.2491723 160.05,21.1175 C161.123339,19.9858277 161.66,18.5333422 161.66,16.76 C161.66,14.9866578 161.123339,13.5050059 160.05,12.315 C158.976661,11.124994 157.658341,10.53 156.095,10.53 C154.531659,10.53 153.190006,11.124994 152.07,12.315 C150.949994,13.5050059 150.39,14.9924911 150.39,16.7775 C150.39,18.5625089 150.961661,20.0149944 152.105,21.135 Z M171.525,33.42 C169.821658,33.42 168.281674,32.8016728 166.905,31.565 L168.69,28.38 C169.506671,29.1500039 170.352496,29.535 171.2275,29.535 C172.102504,29.535 172.814164,29.2200031 173.3625,28.59 C173.910836,27.9599968 174.185,27.2716704 174.185,26.525 C174.185,26.1983317 171.676692,19.8167288 166.66,7.38 L170.86,7.38 L176.425,21.1 L181.99,7.38 L186.19,7.38 L177.16,29.5 C176.623331,30.7133394 175.853338,31.6699965 174.85,32.37 C173.846662,33.0700035 172.738339,33.42 171.525,33.42 Z" id="Caddy-Copy-6"></path>
                <path d="M10.955469,10.859375 C10.955469,12.5937587 10.3636781,13.9277297 9.18007839,14.8613281 C7.99647872,15.7949265 6.30313628,16.2617188 4.10000026,16.2617188 L2.08437526,16.2617188 L2.08437526,23 L0.0921877623,23 L0.0921877623,5.8671875 L4.53359401,5.8671875 C8.81486542,5.8671875 10.955469,7.53123336 10.955469,10.859375 Z M2.08437526,14.5507812 L3.87734401,14.5507812 C5.64297784,14.5507812 6.92030882,14.2656279 7.70937526,13.6953125 C8.49844171,13.1249971 8.89296901,12.2109438 8.89296901,10.953125 C8.89296901,9.82030684 8.52187897,8.97656527 7.77968776,8.421875 C7.03749655,7.86718473 5.88125811,7.58984375 4.31093776,7.58984375 L2.08437526,7.58984375 L2.08437526,14.5507812 Z M18.7363842,9.921875 C19.3066995,9.921875 19.8184131,9.96874953 20.2715404,10.0625 L20.0020092,11.8671875 C19.4707565,11.7499994 19.0020112,11.6914062 18.5957592,11.6914062 C17.5566915,11.6914062 16.6680285,12.113277 15.9297435,12.9570312 C15.1914586,13.8007855 14.8223217,14.8515562 14.8223217,16.109375 L14.8223217,23 L12.8770092,23 L12.8770092,10.15625 L14.4824779,10.15625 L14.7051342,12.5351562 L14.7988842,12.5351562 C15.275449,11.6992146 15.849662,11.0546898 16.5215404,10.6015625 C17.1934188,10.1484352 17.9316926,9.921875 18.7363842,9.921875 Z M31.9079243,16.5664062 C31.9079243,18.6601667 31.3805858,20.294916 30.325893,21.4707031 C29.2712003,22.6464903 27.8141836,23.234375 25.9547993,23.234375 C24.8063561,23.234375 23.786835,22.9648464 22.8962055,22.4257812 C22.0055761,21.8867161 21.318083,21.1132863 20.8337055,20.1054688 C20.3493281,19.0976512 20.107143,17.9179755 20.107143,16.5664062 C20.107143,14.4726458 20.6305753,12.8418027 21.6774555,11.6738281 C22.7243358,10.5058535 24.1774462,9.921875 26.0368305,9.921875 C27.8337145,9.921875 29.2614346,10.5195253 30.3200337,11.7148438 C31.3786327,12.9101622 31.9079243,14.5273336 31.9079243,16.5664062 Z M22.122768,16.5664062 C22.122768,18.2070395 22.4508898,19.457027 23.107143,20.3164062 C23.7633963,21.1757855 24.7282304,21.6054688 26.0016743,21.6054688 C27.2751182,21.6054688 28.2419054,21.1777387 28.9020649,20.3222656 C29.5622245,19.4667926 29.8922993,18.214852 29.8922993,16.5664062 C29.8922993,14.9335856 29.5622245,13.6933636 28.9020649,12.8457031 C28.2419054,11.9980426 27.2673057,11.5742188 25.9782368,11.5742188 C24.7047929,11.5742188 23.743865,11.9921833 23.0954243,12.828125 C22.4469836,13.6640667 22.122768,14.910148 22.122768,16.5664062 Z M35.7747769,10.15625 L35.7747769,18.4882812 C35.7747769,19.5351615 36.0130558,20.3164037 36.4896207,20.8320312 C36.9661856,21.3476588 37.7122719,21.6054688 38.7279019,21.6054688 C40.0716587,21.6054688 41.0540707,21.2382849 41.6751676,20.5039062 C42.2962644,19.7695276 42.6068082,18.5703208 42.6068082,16.90625 L42.6068082,10.15625 L44.5521207,10.15625 L44.5521207,23 L42.9466519,23 L42.6654019,21.2773438 L42.5599332,21.2773438 C42.1614937,21.9101594 41.6087648,22.3945296 40.9017301,22.7304688 C40.1946953,23.0664079 39.3880627,23.234375 38.4818082,23.234375 C36.9193004,23.234375 35.7493902,22.863285 34.9720426,22.1210938 C34.1946949,21.3789025 33.8060269,20.1914144 33.8060269,18.5585938 L33.8060269,10.15625 L35.7747769,10.15625 Z M56.0478796,21.2773438 L55.9424108,21.2773438 C55.0439688,22.5820378 53.7002323,23.234375 51.9111608,23.234375 C50.2314649,23.234375 48.9248374,22.660162 47.991239,21.5117188 C47.0576405,20.3632755 46.5908483,18.7304793 46.5908483,16.6132812 C46.5908483,14.4960832 47.0595936,12.8515684 47.9970983,11.6796875 C48.934603,10.5078066 50.2392775,9.921875 51.9111608,9.921875 C53.653357,9.921875 54.9892812,10.5546812 55.9189733,11.8203125 L56.0713171,11.8203125 L55.9892858,10.8945312 L55.9424108,9.9921875 L55.9424108,4.765625 L57.8877233,4.765625 L57.8877233,23 L56.3056921,23 L56.0478796,21.2773438 Z M52.1572546,21.6054688 C53.4853862,21.6054688 54.4482672,21.2441442 55.0459265,20.5214844 C55.6435857,19.7988245 55.9424108,18.6328205 55.9424108,17.0234375 L55.9424108,16.6132812 C55.9424108,14.7929596 55.6396795,13.4941445 55.0342077,12.7167969 C54.4287359,11.9394492 53.4619487,11.5507812 52.1338171,11.5507812 C50.9931864,11.5507812 50.1201482,11.9941362 49.5146765,12.8808594 C48.9092047,13.7675826 48.6064733,15.0195232 48.6064733,16.6367188 C48.6064733,18.277352 48.9072516,19.5156208 49.5088171,20.3515625 C50.1103826,21.1875042 50.9931863,21.6054688 52.1572546,21.6054688 Z M62.5866072,23 L60.6412947,23 L60.6412947,4.765625 L62.5866072,4.765625 L62.5866072,23 Z M63.3011161,10.15625 L65.3870536,10.15625 L68.1995536,17.4804688 C68.8167442,19.1523521 69.1995529,20.3593713 69.3479911,21.1015625 L69.4417411,21.1015625 C69.5433041,20.703123 69.7561926,20.0214892 70.080413,19.0566406 C70.4046334,18.0917921 71.4651696,15.1250248 73.2620536,10.15625 L75.3479911,10.15625 L69.8284599,24.78125 C69.2815821,26.2265697 68.6429166,27.2519501 67.9124442,27.8574219 C67.1819718,28.4628937 66.2854964,28.765625 65.2229911,28.765625 C64.6292381,28.765625 64.0433065,28.6992194 63.4651786,28.5664062 L63.4651786,27.0078125 C63.8948683,27.101563 64.3753322,27.1484375 64.9065849,27.1484375 C66.242529,27.1484375 67.1956445,26.398445 67.7659599,24.8984375 L68.4808036,23.0703125 L63.3011161,10.15625 Z" id="Proudly"></path>
                <path d="M207.21875,10.859375 C207.21875,12.5937587 206.626959,13.9277297 205.443359,14.8613281 C204.25976,15.7949265 202.566417,16.2617188 200.363281,16.2617188 L198.347656,16.2617188 L198.347656,23 L196.355469,23 L196.355469,5.8671875 L200.796875,5.8671875 C205.078146,5.8671875 207.21875,7.53123336 207.21875,10.859375 Z M198.347656,14.5507812 L200.140625,14.5507812 C201.906259,14.5507812 203.18359,14.2656279 203.972656,13.6953125 C204.761723,13.1249971 205.15625,12.2109438 205.15625,10.953125 C205.15625,9.82030684 204.78516,8.97656527 204.042969,8.421875 C203.300778,7.86718473 202.144539,7.58984375 200.574219,7.58984375 L198.347656,7.58984375 L198.347656,14.5507812 Z M220.226228,16.5664062 C220.226228,18.6601667 219.698889,20.294916 218.644196,21.4707031 C217.589504,22.6464903 216.132487,23.234375 214.273103,23.234375 C213.124659,23.234375 212.105138,22.9648464 211.214509,22.4257812 C210.323879,21.8867161 209.636386,21.1132863 209.152009,20.1054688 C208.667631,19.0976512 208.425446,17.9179755 208.425446,16.5664062 C208.425446,14.4726458 208.948879,12.8418027 209.995759,11.6738281 C211.042639,10.5058535 212.49575,9.921875 214.355134,9.921875 C216.152018,9.921875 217.579738,10.5195253 218.638337,11.7148438 C219.696936,12.9101622 220.226228,14.5273336 220.226228,16.5664062 Z M210.441071,16.5664062 C210.441071,18.2070395 210.769193,19.457027 211.425446,20.3164062 C212.0817,21.1757855 213.046534,21.6054688 214.319978,21.6054688 C215.593422,21.6054688 216.560209,21.1777387 217.220368,20.3222656 C217.880528,19.4667926 218.210603,18.214852 218.210603,16.5664062 C218.210603,14.9335856 217.880528,13.6933636 217.220368,12.8457031 C216.560209,11.9980426 215.585609,11.5742188 214.29654,11.5742188 C213.023096,11.5742188 212.062168,11.9921833 211.413728,12.828125 C210.765287,13.6640667 210.441071,14.910148 210.441071,16.5664062 Z M232.272768,23 L229.917299,15.4648438 C229.768861,15.0039039 229.49152,13.9570394 229.085268,12.3242188 L228.991518,12.3242188 C228.679016,13.6914131 228.405581,14.74609 228.171205,15.4882812 L225.745424,23 L223.495424,23 L219.991518,10.15625 L222.03058,10.15625 C222.858709,13.3828286 223.489562,15.8398353 223.923158,17.5273438 C224.356754,19.2148522 224.604799,20.3515596 224.667299,20.9375 L224.761049,20.9375 C224.846987,20.4921853 224.985657,19.9160192 225.177065,19.2089844 C225.368472,18.5019496 225.534486,17.9414083 225.675112,17.5273438 L228.03058,10.15625 L230.139955,10.15625 L232.43683,17.5273438 C232.874332,18.8711005 233.171205,19.9999954 233.327455,20.9140625 L233.421205,20.9140625 C233.452455,20.6328111 233.536439,20.1992217 233.673158,19.6132812 C233.809878,19.0273408 234.624323,15.8750286 236.116518,10.15625 L238.132143,10.15625 L234.581362,23 L232.272768,23 Z M244.506808,23.234375 C242.608361,23.234375 241.110329,22.6562558 240.012667,21.5 C238.915006,20.3437442 238.366183,18.7382915 238.366183,16.6835938 C238.366183,14.6132709 238.875943,12.9687561 239.89548,11.75 C240.915016,10.5312439 242.284143,9.921875 244.002902,9.921875 C245.612285,9.921875 246.885709,10.4511666 247.823214,11.5097656 C248.760719,12.5683647 249.229464,13.9648351 249.229464,15.6992188 L249.229464,16.9296875 L240.381808,16.9296875 C240.420871,18.4375075 240.801726,19.5820273 241.524386,20.3632812 C242.247046,21.1445352 243.264614,21.5351562 244.57712,21.5351562 C245.95994,21.5351562 247.327114,21.2460966 248.678683,20.6679688 L248.678683,22.4023438 C247.991179,22.6992202 247.340795,22.9121087 246.727511,23.0410156 C246.114227,23.1699225 245.374,23.234375 244.506808,23.234375 Z M243.979464,11.5507812 C242.948209,11.5507812 242.125952,11.8867154 241.512667,12.5585938 C240.899383,13.2304721 240.538058,14.1601503 240.428683,15.3476562 L247.143527,15.3476562 C247.143527,14.1210876 246.870092,13.1816439 246.323214,12.5292969 C245.776336,11.8769499 244.995094,11.5507812 243.979464,11.5507812 Z M257.033817,9.921875 C257.604132,9.921875 258.115846,9.96874953 258.568973,10.0625 L258.299442,11.8671875 C257.768189,11.7499994 257.299444,11.6914062 256.893192,11.6914062 C255.854124,11.6914062 254.965461,12.113277 254.227176,12.9570312 C253.488891,13.8007855 253.119754,14.8515562 253.119754,16.109375 L253.119754,23 L251.174442,23 L251.174442,10.15625 L252.779911,10.15625 L253.002567,12.5351562 L253.096317,12.5351562 C253.572882,11.6992146 254.147095,11.0546898 254.818973,10.6015625 C255.490851,10.1484352 256.229125,9.921875 257.033817,9.921875 Z M264.545201,23.234375 C262.646754,23.234375 261.148722,22.6562558 260.05106,21.5 C258.953398,20.3437442 258.404576,18.7382915 258.404576,16.6835938 C258.404576,14.6132709 258.914336,12.9687561 259.933873,11.75 C260.953409,10.5312439 262.322536,9.921875 264.041294,9.921875 C265.650678,9.921875 266.924102,10.4511666 267.861607,11.5097656 C268.799112,12.5683647 269.267857,13.9648351 269.267857,15.6992188 L269.267857,16.9296875 L260.420201,16.9296875 C260.459263,18.4375075 260.840119,19.5820273 261.562779,20.3632812 C262.285439,21.1445352 263.303007,21.5351562 264.615513,21.5351562 C265.998333,21.5351562 267.365506,21.2460966 268.717076,20.6679688 L268.717076,22.4023438 C268.029572,22.6992202 267.379188,22.9121087 266.765904,23.0410156 C266.15262,23.1699225 265.412393,23.234375 264.545201,23.234375 Z M264.017857,11.5507812 C262.986602,11.5507812 262.164344,11.8867154 261.55106,12.5585938 C260.937776,13.2304721 260.576451,14.1601503 260.467076,15.3476562 L267.181919,15.3476562 C267.181919,14.1210876 266.908485,13.1816439 266.361607,12.5292969 C265.814729,11.8769499 265.033487,11.5507812 264.017857,11.5507812 Z M279.955022,21.2773438 L279.849553,21.2773438 C278.951111,22.5820378 277.607375,23.234375 275.818303,23.234375 C274.138607,23.234375 272.83198,22.660162 271.898381,21.5117188 C270.964783,20.3632755 270.497991,18.7304793 270.497991,16.6132812 C270.497991,14.4960832 270.966736,12.8515684 271.904241,11.6796875 C272.841746,10.5078066 274.14642,9.921875 275.818303,9.921875 C277.5605,9.921875 278.896424,10.5546812 279.826116,11.8203125 L279.97846,11.8203125 L279.896428,10.8945312 L279.849553,9.9921875 L279.849553,4.765625 L281.794866,4.765625 L281.794866,23 L280.212835,23 L279.955022,21.2773438 Z M276.064397,21.6054688 C277.392529,21.6054688 278.35541,21.2441442 278.953069,20.5214844 C279.550728,19.7988245 279.849553,18.6328205 279.849553,17.0234375 L279.849553,16.6132812 C279.849553,14.7929596 279.546822,13.4941445 278.94135,12.7167969 C278.335878,11.9394492 277.369091,11.5507812 276.04096,11.5507812 C274.900329,11.5507812 274.027291,11.9941362 273.421819,12.8808594 C272.816347,13.7675826 272.513616,15.0195232 272.513616,16.6367188 C272.513616,18.277352 272.814394,19.5156208 273.41596,20.3515625 C274.017525,21.1875042 274.900329,21.6054688 276.064397,21.6054688 Z" id="Powered"></path>
            </g>
        </g>
    </g>
</svg>