<?xml version="1.0" encoding="UTF-8"?>
<svg width="289px" height="34px" viewBox="0 0 289 34" version="1.1" xmlns="http://www.w3.org/2000/svg" xmlns:xlink="http://www.w3.org/1999/xlink">
    <!-- Generator: Sketch 42 (36781) - http://www.bohemiancoding.com/sketch -->
    <title>Group 24</title>
    <desc>Created with Sketch.</desc>
    <defs></defs>
    <g id="Page-1" stroke="none" stroke-width="1" fill="none" fill-rule="evenodd">
        <g id="Desktop-HD" transform="translate(-432.000000, -1669.000000)" fill="#000000">
            <g id="Group-24" transform="translate(432.000000, 1669.000000)">
                <path d="M197.56,22.255 C198.98334,22.255 200.208328,22.0158357 201.235,21.5375 C202.261672,21.0591643 203.334994,20.2950053 204.455,19.245 L207.115,21.975 C204.524987,24.8450143 201.380852,26.28 197.6825,26.28 C193.984148,26.28 190.915846,25.0900119 188.4775,22.71 C186.039154,20.3299881 184.82,17.3200182 184.82,13.68 C184.82,10.0399818 186.062488,7.0066788 188.5475,4.58 C191.032512,2.1533212 194.170814,0.94 197.9625,0.94 C201.754186,0.94 204.921654,2.339986 207.465,5.14 L204.84,8.01 C203.673328,6.8899944 202.570839,6.10833555 201.5325,5.665 C200.494161,5.22166445 199.275007,5 197.875,5 C195.401654,5 193.325008,5.79915867 191.645,7.3975 C189.964992,8.99584132 189.125,11.0374876 189.125,13.5225 C189.125,16.0075124 189.959158,18.0841583 191.6275,19.7525 C193.295842,21.4208417 195.273322,22.255 197.56,22.255 Z M224.68,26 L221.11,26 L221.11,23.515 C219.569992,25.3583426 217.505013,26.28 214.915,26.28 C212.978324,26.28 211.374173,25.7316721 210.1025,24.635 C208.830827,23.5383279 208.195,22.0741758 208.195,20.2425 C208.195,18.4108242 208.87166,17.0400046 210.225,16.13 C211.57834,15.2199954 213.409988,14.765 215.72,14.765 L220.795,14.765 L220.795,14.065 C220.795,11.5916543 219.418347,10.355 216.665,10.355 C214.938325,10.355 213.141676,10.9849937 211.275,12.245 L209.525,9.795 C211.788345,7.99832435 214.354986,7.1 217.225,7.1 C219.418344,7.1 221.20916,7.65416112 222.5975,8.7625 C223.98584,9.87083887 224.68,11.6149881 224.68,13.995 L224.68,26 Z M220.76,19.07 L220.76,17.495 L216.35,17.495 C213.526653,17.495 212.115,18.3816578 212.115,20.155 C212.115,21.0650045 212.464996,21.7591643 213.165,22.2375 C213.865004,22.7158357 214.83916,22.955 216.0875,22.955 C217.33584,22.955 218.426662,22.6050035 219.36,21.905 C220.293338,21.2049965 220.76,20.260006 220.76,19.07 Z M229.575,23.62 C227.824991,21.8466578 226.95,19.5133478 226.95,16.62 C226.95,13.7266522 227.848324,11.4166753 229.645,9.69 C231.441676,7.9633247 233.582488,7.1 236.0675,7.1 C238.552512,7.1 240.553326,8.1499895 242.07,10.25 L242.07,0.03 L245.99,0.03 L245.99,26 L242.07,26 L242.07,23.2 C240.623326,25.2533436 238.511681,26.28 235.735,26.28 C233.378322,26.28 231.325009,25.3933422 229.575,23.62 Z M232.585,21.135 C233.728339,22.2550056 235.069992,22.815 236.61,22.815 C238.150008,22.815 239.456661,22.2491723 240.53,21.1175 C241.603339,19.9858277 242.14,18.5333422 242.14,16.76 C242.14,14.9866578 241.603339,13.5050059 240.53,12.315 C239.456661,11.124994 238.138341,10.53 236.575,10.53 C235.011659,10.53 233.670006,11.124994 232.55,12.315 C231.429994,13.5050059 230.87,14.9924911 230.87,16.7775 C230.87,18.5625089 231.441661,20.0149944 232.585,21.135 Z M251.095,23.62 C249.344991,21.8466578 248.47,19.5133478 248.47,16.62 C248.47,13.7266522 249.368324,11.4166753 251.165,9.69 C252.961676,7.9633247 255.102488,7.1 257.5875,7.1 C260.072512,7.1 262.073326,8.1499895 263.59,10.25 L263.59,0.03 L267.51,0.03 L267.51,26 L263.59,26 L263.59,23.2 C262.143326,25.2533436 260.031681,26.28 257.255,26.28 C254.898322,26.28 252.845009,25.3933422 251.095,23.62 Z M254.105,21.135 C255.248339,22.2550056 256.589992,22.815 258.13,22.815 C259.670008,22.815 260.976661,22.2491723 262.05,21.1175 C263.123339,19.9858277 263.66,18.5333422 263.66,16.76 C263.66,14.9866578 263.123339,13.5050059 262.05,12.315 C260.976661,11.124994 259.658341,10.53 258.095,10.53 C256.531659,10.53 255.190006,11.124994 254.07,12.315 C252.949994,13.5050059 252.39,14.9924911 252.39,16.7775 C252.39,18.5625089 252.961661,20.0149944 254.105,21.135 Z M273.525,33.42 C271.821658,33.42 270.281674,32.8016728 268.905,31.565 L270.69,28.38 C271.506671,29.1500039 272.352496,29.535 273.2275,29.535 C274.102504,29.535 274.814164,29.2200031 275.3625,28.59 C275.910836,27.9599968 276.185,27.2716704 276.185,26.525 C276.185,26.1983317 273.676692,19.8167288 268.66,7.38 L272.86,7.38 L278.425,21.1 L283.99,7.38 L288.19,7.38 L279.16,29.5 C278.623331,30.7133394 277.853338,31.6699965 276.85,32.37 C275.846662,33.0700035 274.738339,33.42 273.525,33.42 Z" id="Caddy-Copy-2"></path>
                <path d="M7.50959885,14.4335938 L12.0799114,5.8671875 L14.2361614,5.8671875 L8.51741135,16.3554688 L8.51741135,23 L6.50178635,23 L6.50178635,16.4492188 L0.794755101,5.8671875 L2.9744426,5.8671875 L7.50959885,14.4335938 Z M24.8178577,16.5664062 C24.8178577,18.6601667 24.2905193,20.294916 23.2358265,21.4707031 C22.1811337,22.6464903 20.724117,23.234375 18.8647327,23.234375 C17.7162895,23.234375 16.6967684,22.9648464 15.806139,22.4257812 C14.9155095,21.8867161 14.2280164,21.1132863 13.743639,20.1054688 C13.2592616,19.0976512 13.0170765,17.9179755 13.0170765,16.5664062 C13.0170765,14.4726458 13.5405088,12.8418027 14.587389,11.6738281 C15.6342692,10.5058535 17.0873797,9.921875 18.946764,9.921875 C20.743648,9.921875 22.1713681,10.5195253 23.2299671,11.7148438 C24.2885662,12.9101622 24.8178577,14.5273336 24.8178577,16.5664062 Z M15.0327015,16.5664062 C15.0327015,18.2070395 15.3608232,19.457027 16.0170765,20.3164062 C16.6733298,21.1757855 17.6381639,21.6054688 18.9116077,21.6054688 C20.1850516,21.6054688 21.1518388,21.1777387 21.8119984,20.3222656 C22.4721579,19.4667926 22.8022327,18.214852 22.8022327,16.5664062 C22.8022327,14.9335856 22.4721579,13.6933636 21.8119984,12.8457031 C21.1518388,11.9980426 20.1772392,11.5742188 18.8881702,11.5742188 C17.6147264,11.5742188 16.6537985,11.9921833 16.0053577,12.828125 C15.356917,13.6640667 15.0327015,14.910148 15.0327015,16.5664062 Z M28.6847104,10.15625 L28.6847104,18.4882812 C28.6847104,19.5351615 28.9229893,20.3164037 29.3995541,20.8320312 C29.876119,21.3476588 30.6222053,21.6054688 31.6378354,21.6054688 C32.9815921,21.6054688 33.9640042,21.2382849 34.585101,20.5039062 C35.2061979,19.7695276 35.5167416,18.5703208 35.5167416,16.90625 L35.5167416,10.15625 L37.4620541,10.15625 L37.4620541,23 L35.8565854,23 L35.5753354,21.2773438 L35.4698666,21.2773438 C35.0714271,21.9101594 34.5186983,22.3945296 33.8116635,22.7304688 C33.1046287,23.0664079 32.2979962,23.234375 31.3917416,23.234375 C29.8292338,23.234375 28.6593236,22.863285 27.881976,22.1210938 C27.1046284,21.3789025 26.7159604,20.1914144 26.7159604,18.5585938 L26.7159604,10.15625 L28.6847104,10.15625 Z M55.5902907,10.15625 L55.5902907,11.3867188 L53.2113844,11.6679688 C53.4301355,11.9414076 53.6254461,12.2988259 53.7973219,12.7402344 C53.9691978,13.1816428 54.0551344,13.6796847 54.0551344,14.234375 C54.0551344,15.4921938 53.6254512,16.49609 52.7660719,17.2460938 C51.9066926,17.9960975 50.7270169,18.3710938 49.2270094,18.3710938 C48.844195,18.3710938 48.4848236,18.3398441 48.1488844,18.2773438 C47.3207553,18.7148459 46.9066969,19.2656217 46.9066969,19.9296875 C46.9066969,20.2812518 47.0512267,20.5410148 47.3402907,20.7089844 C47.6293546,20.876954 48.1254434,20.9609375 48.8285719,20.9609375 L51.1020094,20.9609375 C52.4926414,20.9609375 53.5609901,21.2539033 54.3070875,21.8398438 C55.053185,22.4257842 55.4262282,23.2773382 55.4262282,24.3945312 C55.4262282,25.8164134 54.8559214,26.9003869 53.7152907,27.6464844 C52.57466,28.3925819 50.9106141,28.765625 48.7231032,28.765625 C47.0434073,28.765625 45.7484983,28.4531281 44.8383375,27.828125 C43.9281767,27.2031219 43.4731032,26.3203182 43.4731032,25.1796875 C43.4731032,24.3984336 43.7231007,23.7226591 44.2231032,23.1523438 C44.7231057,22.5820284 45.4262236,22.1953135 46.3324782,21.9921875 C46.0043515,21.8437493 45.7289637,21.6132828 45.5063063,21.3007812 C45.2836489,20.9882797 45.1723219,20.6250021 45.1723219,20.2109375 C45.1723219,19.7421852 45.2973207,19.332033 45.5473219,18.9804688 C45.7973232,18.6289045 46.1918505,18.2890641 46.7309157,17.9609375 C46.0668498,17.6874986 45.5258396,17.2226595 45.1078688,16.5664062 C44.689898,15.910153 44.4809157,15.1601605 44.4809157,14.3164062 C44.4809157,12.9101492 44.9027864,11.8261757 45.7465407,11.0644531 C46.5902949,10.3027306 47.7855954,9.921875 49.3324782,9.921875 C50.0043565,9.921875 50.6098192,9.99999922 51.1488844,10.15625 L55.5902907,10.15625 Z M45.3481032,25.15625 C45.3481032,25.851566 45.641069,26.3789045 46.2270094,26.7382812 C46.8129498,27.097658 47.6527852,27.2773438 48.7465407,27.2773438 C50.3793613,27.2773438 51.5883336,27.0332056 52.3734938,26.5449219 C53.158654,26.0566382 53.5512282,25.3945354 53.5512282,24.5585938 C53.5512282,23.8632778 53.3363866,23.3808607 52.9066969,23.1113281 C52.4770073,22.8417955 51.6684216,22.7070312 50.4809157,22.7070312 L48.1488844,22.7070312 C47.2660675,22.7070312 46.5785744,22.9179666 46.0863844,23.3398438 C45.5941945,23.7617209 45.3481032,24.3671836 45.3481032,25.15625 Z M46.4027907,14.2695312 C46.4027907,15.1679732 46.6566944,15.8476539 47.1645094,16.3085938 C47.6723245,16.7695336 48.3793486,17 49.2856032,17 C51.1840502,17 52.1332594,16.0781342 52.1332594,14.234375 C52.1332594,12.3046779 51.1723315,11.3398438 49.2504469,11.3398438 C48.3363798,11.3398438 47.6332619,11.585935 47.1410719,12.078125 C46.648882,12.570315 46.4027907,13.3007764 46.4027907,14.2695312 Z M67.9415183,16.5664062 C67.9415183,18.6601667 67.4141798,20.294916 66.3594871,21.4707031 C65.3047943,22.6464903 63.8477776,23.234375 61.9883933,23.234375 C60.8399501,23.234375 59.820429,22.9648464 58.9297996,22.4257812 C58.0391701,21.8867161 57.351677,21.1132863 56.8672996,20.1054688 C56.3829221,19.0976512 56.1407371,17.9179755 56.1407371,16.5664062 C56.1407371,14.4726458 56.6641693,12.8418027 57.7110496,11.6738281 C58.7579298,10.5058535 60.2110403,9.921875 62.0704246,9.921875 C63.8673085,9.921875 65.2950286,10.5195253 66.3536277,11.7148438 C67.4122267,12.9101622 67.9415183,14.5273336 67.9415183,16.5664062 Z M58.1563621,16.5664062 C58.1563621,18.2070395 58.4844838,19.457027 59.1407371,20.3164062 C59.7969903,21.1757855 60.7618244,21.6054688 62.0352683,21.6054688 C63.3087122,21.6054688 64.2754994,21.1777387 64.9356589,20.3222656 C65.5958185,19.4667926 65.9258933,18.214852 65.9258933,16.5664062 C65.9258933,14.9335856 65.5958185,13.6933636 64.9356589,12.8457031 C64.2754994,11.9980426 63.3008998,11.5742188 62.0118308,11.5742188 C60.7383869,11.5742188 59.777459,11.9921833 59.1290183,12.828125 C58.4805776,13.6640667 58.1563621,14.910148 58.1563621,16.5664062 Z M74.1286834,21.6289062 C74.4724352,21.6289062 74.8044631,21.6035159 75.1247772,21.5527344 C75.4450913,21.5019529 75.698995,21.449219 75.8864959,21.3945312 L75.8864959,22.8828125 C75.6755574,22.9843755 75.3650136,23.068359 74.9548553,23.1347656 C74.544697,23.2011722 74.1755601,23.234375 73.8474334,23.234375 C71.363046,23.234375 70.1208709,21.9257943 70.1208709,19.3085938 L70.1208709,11.6679688 L68.2810272,11.6679688 L68.2810272,10.7304688 L70.1208709,9.921875 L70.9411834,7.1796875 L72.0661834,7.1796875 L72.0661834,10.15625 L75.7927459,10.15625 L75.7927459,11.6679688 L72.0661834,11.6679688 L72.0661834,19.2265625 C72.0661834,20.0000039 72.2497754,20.5937479 72.6169647,21.0078125 C72.984154,21.4218771 73.4880552,21.6289062 74.1286834,21.6289062 Z M90.2295762,19.4960938 C90.2295762,20.6914122 89.7842682,21.613278 88.8936387,22.2617188 C88.0030093,22.9101595 86.7530218,23.234375 85.1436387,23.234375 C83.4405052,23.234375 82.1123935,22.9648464 81.1592637,22.4257812 L81.1592637,20.6210938 C81.7764543,20.9335953 82.4385571,21.1796866 83.1455919,21.359375 C83.8526266,21.5390634 84.5342604,21.6289062 85.1905137,21.6289062 C86.2061438,21.6289062 86.987386,21.4667985 87.5342637,21.1425781 C88.0811415,20.8183578 88.3545762,20.3242221 88.3545762,19.6601562 C88.3545762,19.1601538 88.1377815,18.7324237 87.7041856,18.3769531 C87.2705897,18.0214826 86.424895,17.6015649 85.1670762,17.1171875 C83.9717578,16.6718728 83.1221569,16.2832048 82.6182481,15.9511719 C82.1143393,15.619139 81.7393431,15.2421896 81.4932481,14.8203125 C81.2471531,14.3984354 81.1241075,13.8945342 81.1241075,13.3085938 C81.1241075,12.2617135 81.5498845,11.4355499 82.4014512,10.8300781 C83.253018,10.2246063 84.4209751,9.921875 85.9053575,9.921875 C87.2881769,9.921875 88.6397259,10.2031222 89.960045,10.765625 L89.2686387,12.3476562 C87.9795698,11.8164036 86.8116127,11.5507812 85.7647325,11.5507812 C84.8428529,11.5507812 84.1475473,11.6953111 83.678795,11.984375 C83.2100426,12.2734389 82.97567,12.6718725 82.97567,13.1796875 C82.97567,13.5234392 83.0635597,13.816405 83.2393419,14.0585938 C83.415124,14.3007825 83.6983243,14.5312489 84.0889512,14.75 C84.4795782,14.9687511 85.2295707,15.2851542 86.3389512,15.6992188 C87.8623963,16.253909 88.8916829,16.8124972 89.4268419,17.375 C89.9620008,17.9375028 90.2295762,18.644527 90.2295762,19.4960938 Z M97.4479914,23.234375 C95.5495444,23.234375 94.0515125,22.6562558 92.9538507,21.5 C91.856189,20.3437442 91.3073664,18.7382915 91.3073664,16.6835938 C91.3073664,14.6132709 91.8171269,12.9687561 92.8366632,11.75 C93.8561996,10.5312439 95.2253265,9.921875 96.9440851,9.921875 C98.5534682,9.921875 99.8268929,10.4511666 100.764398,11.5097656 C101.701902,12.5683647 102.170648,13.9648351 102.170648,15.6992188 L102.170648,16.9296875 L93.3229914,16.9296875 C93.3620541,18.4375075 93.7429096,19.5820273 94.4655695,20.3632812 C95.1882294,21.1445352 96.2057973,21.5351562 97.5183039,21.5351562 C98.9011233,21.5351562 100.268297,21.2460966 101.619866,20.6679688 L101.619866,22.4023438 C100.932363,22.6992202 100.281979,22.9121087 99.6686945,23.0410156 C99.0554102,23.1699225 98.3151832,23.234375 97.4479914,23.234375 Z M96.9206476,11.5507812 C95.8893925,11.5507812 95.0671351,11.8867154 94.4538507,12.5585938 C93.8405664,13.2304721 93.4792419,14.1601503 93.3698664,15.3476562 L100.08471,15.3476562 C100.08471,14.1210876 99.8112754,13.1816439 99.2643976,12.5292969 C98.7175199,11.8769499 97.9362777,11.5507812 96.9206476,11.5507812 Z M109.975,9.921875 C110.545316,9.921875 111.057029,9.96874953 111.510157,10.0625 L111.240625,11.8671875 C110.709373,11.7499994 110.240627,11.6914062 109.834375,11.6914062 C108.795308,11.6914062 107.906645,12.113277 107.16836,12.9570312 C106.430075,13.8007855 106.060938,14.8515562 106.060938,16.109375 L106.060938,23 L104.115625,23 L104.115625,10.15625 L105.721094,10.15625 L105.94375,12.5351562 L106.0375,12.5351562 C106.514065,11.6992146 107.088278,11.0546898 107.760157,10.6015625 C108.432035,10.1484352 109.170309,9.921875 109.975,9.921875 Z M115.353572,23 L110.478572,10.15625 L112.564509,10.15625 L115.330134,17.7734375 C115.955137,19.5546964 116.322321,20.7109348 116.431697,21.2421875 L116.525447,21.2421875 C116.611385,20.8281229 116.882866,19.9707096 117.3399,18.6699219 C117.796933,17.3691341 118.822314,14.5312719 120.416072,10.15625 L122.502009,10.15625 L117.627009,23 L115.353572,23 Z M128.618862,23.234375 C126.720415,23.234375 125.222383,22.6562558 124.124721,21.5 C123.027059,20.3437442 122.478237,18.7382915 122.478237,16.6835938 C122.478237,14.6132709 122.987997,12.9687561 124.007534,11.75 C125.02707,10.5312439 126.396197,9.921875 128.114956,9.921875 C129.724339,9.921875 130.997763,10.4511666 131.935268,11.5097656 C132.872773,12.5683647 133.341518,13.9648351 133.341518,15.6992188 L133.341518,16.9296875 L124.493862,16.9296875 C124.532924,18.4375075 124.91378,19.5820273 125.63644,20.3632812 C126.3591,21.1445352 127.376668,21.5351562 128.689174,21.5351562 C130.071994,21.5351562 131.439168,21.2460966 132.790737,20.6679688 L132.790737,22.4023438 C132.103233,22.6992202 131.452849,22.9121087 130.839565,23.0410156 C130.226281,23.1699225 129.486054,23.234375 128.618862,23.234375 Z M128.091518,11.5507812 C127.060263,11.5507812 126.238005,11.8867154 125.624721,12.5585938 C125.011437,13.2304721 124.650112,14.1601503 124.540737,15.3476562 L131.255581,15.3476562 C131.255581,14.1210876 130.982146,13.1816439 130.435268,12.5292969 C129.88839,11.8769499 129.107148,11.5507812 128.091518,11.5507812 Z M144.028683,21.2773438 L143.923214,21.2773438 C143.024772,22.5820378 141.681036,23.234375 139.891964,23.234375 C138.212269,23.234375 136.905641,22.660162 135.972043,21.5117188 C135.038444,20.3632755 134.571652,18.7304793 134.571652,16.6132812 C134.571652,14.4960832 135.040397,12.8515684 135.977902,11.6796875 C136.915407,10.5078066 138.220081,9.921875 139.891964,9.921875 C141.634161,9.921875 142.970085,10.5546812 143.899777,11.8203125 L144.052121,11.8203125 L143.970089,10.8945312 L143.923214,9.9921875 L143.923214,4.765625 L145.868527,4.765625 L145.868527,23 L144.286496,23 L144.028683,21.2773438 Z M140.138058,21.6054688 C141.46619,21.6054688 142.429071,21.2441442 143.02673,20.5214844 C143.624389,19.7988245 143.923214,18.6328205 143.923214,17.0234375 L143.923214,16.6132812 C143.923214,14.7929596 143.620483,13.4941445 143.015011,12.7167969 C142.40954,11.9394492 141.442752,11.5507812 140.114621,11.5507812 C138.97399,11.5507812 138.100952,11.9941362 137.49548,12.8808594 C136.890008,13.7675826 136.587277,15.0195232 136.587277,16.6367188 C136.587277,18.277352 136.888055,19.5156208 137.489621,20.3515625 C138.091186,21.1875042 138.97399,21.6054688 140.138058,21.6054688 Z M159.461607,9.9453125 C161.149116,9.9453125 162.459649,10.5214786 163.393248,11.6738281 C164.326846,12.8261776 164.793638,14.4570207 164.793638,16.5664062 C164.793638,18.6757918 164.32294,20.3144473 163.381529,21.4824219 C162.440118,22.6503965 161.133491,23.234375 159.461607,23.234375 C158.625666,23.234375 157.862001,23.0800797 157.170592,22.7714844 C156.479182,22.4628891 155.89911,21.9882845 155.430357,21.3476562 L155.289732,21.3476562 L154.879576,23 L153.485045,23 L153.485045,4.765625 L155.430357,4.765625 L155.430357,9.1953125 C155.430357,10.187505 155.399108,11.0781211 155.336607,11.8671875 L155.430357,11.8671875 C156.336612,10.5859311 157.680348,9.9453125 159.461607,9.9453125 Z M159.180357,11.5742188 C157.852226,11.5742188 156.895204,11.9550743 156.309263,12.7167969 C155.723323,13.4785194 155.430357,14.7617097 155.430357,16.5664062 C155.430357,18.3711028 155.731135,19.6621055 156.332701,20.4394531 C156.934266,21.2168008 157.899101,21.6054688 159.227232,21.6054688 C160.422551,21.6054688 161.313167,21.1699262 161.899107,20.2988281 C162.485048,19.42773 162.778013,18.1757894 162.778013,16.5429688 C162.778013,14.8710854 162.485048,13.6250041 161.899107,12.8046875 C161.313167,11.9843709 160.406926,11.5742188 159.180357,11.5742188 Z M164.301116,10.15625 L166.387054,10.15625 L169.199554,17.4804688 C169.816744,19.1523521 170.199553,20.3593713 170.347991,21.1015625 L170.441741,21.1015625 C170.543304,20.703123 170.756193,20.0214892 171.080413,19.0566406 C171.404633,18.0917921 172.46517,15.1250248 174.262054,10.15625 L176.347991,10.15625 L170.82846,24.78125 C170.281582,26.2265697 169.642917,27.2519501 168.912444,27.8574219 C168.181972,28.4628937 167.285496,28.765625 166.222991,28.765625 C165.629238,28.765625 165.043306,28.6992194 164.465179,28.5664062 L164.465179,27.0078125 C164.894868,27.101563 165.375332,27.1484375 165.906585,27.1484375 C167.242529,27.1484375 168.195645,26.398445 168.76596,24.8984375 L169.480804,23.0703125 L164.301116,10.15625 Z" id="You-got-served-by"></path>
            </g>
        </g>
    </g>
</svg>